{"glyphs":{"0":{"ha":861,"x_min":0,"x_max":0,"o":"m 431 -19 b 61 479 168 -19 61 207 b 431 979 61 751 168 979 b 800 479 693 979 800 751 b 431 -19 800 207 693 -19 m 431 92 b 675 479 614 92 675 275 b 431 868 675 683 614 868 b 186 479 247 868 186 683 b 431 92 186 275 247 92 "},"1":{"ha":481,"x_min":0,"x_max":0,"o":"m 372 960 l 372 0 l 247 0 l 247 718 b 47 663 189 663 133 663 l 47 753 b 275 960 215 753 261 835 "},"2":{"ha":772,"x_min":0,"x_max":0,"o":"m 71 624 b 417 979 71 822 179 979 b 722 692 581 979 722 875 b 194 114 722 363 254 343 l 194 111 l 708 111 l 708 0 l 43 0 b 329 413 43 174 153 310 b 597 690 508 517 597 550 b 414 868 597 771 561 868 b 196 624 246 868 196 756 "},"3":{"ha":790,"x_min":0,"x_max":0,"o":"m 50 672 b 403 979 50 849 165 979 b 711 714 567 979 711 883 b 564 510 711 613 661 549 l 564 507 b 746 269 700 469 746 382 b 406 -19 746 81 611 -19 b 25 325 161 -19 25 108 l 150 325 b 396 92 150 186 214 92 b 621 269 561 92 621 154 b 418 446 621 419 511 446 l 315 446 l 315 557 l 413 557 b 586 714 511 557 586 603 b 403 868 586 792 533 868 b 175 672 215 868 175 767 "},"4":{"ha":786,"x_min":0,"x_max":0,"o":"m 499 0 l 499 225 l 36 225 l 36 336 l 499 960 l 624 960 l 624 336 l 756 336 l 756 225 l 624 225 l 624 0 m 164 336 l 499 336 l 499 786 "},"5":{"ha":768,"x_min":0,"x_max":0,"o":"m 417 644 b 724 328 597 644 724 506 b 379 -19 724 121 572 -19 b 32 276 160 -19 38 122 l 157 276 b 374 92 168 183 224 92 b 599 328 506 92 599 174 b 388 533 599 472 511 533 b 178 443 301 533 226 506 l 44 443 l 144 960 l 672 960 l 672 849 l 246 849 l 189 558 l 189 556 b 417 644 238 611 310 644 "},"6":{"ha":808,"x_min":0,"x_max":0,"o":"m 186 483 b 443 626 233 574 331 626 b 754 310 626 626 754 500 b 421 -19 754 132 629 -19 b 61 481 158 -19 61 175 b 425 979 61 800 186 979 b 729 717 604 979 715 857 l 604 717 b 425 868 592 810 533 868 b 186 486 226 868 189 679 l 186 483 m 421 92 b 629 301 553 92 629 174 b 432 515 629 439 546 515 b 200 299 293 515 200 428 b 421 92 200 175 282 92 "},"7":{"ha":713,"x_min":0,"x_max":0,"o":"m 697 960 l 697 863 b 303 0 479 679 303 310 l 171 0 b 558 846 171 321 388 693 l 558 849 l 32 849 l 32 960 "},"8":{"ha":811,"x_min":0,"x_max":0,"o":"m 46 269 b 224 508 46 403 132 468 l 224 511 b 94 717 156 547 94 608 b 406 979 94 882 222 979 b 717 717 589 979 717 882 b 588 511 717 608 654 547 l 588 508 b 765 269 678 468 765 403 b 406 -19 765 76 611 -19 b 46 269 200 -19 46 76 m 406 565 b 592 717 517 565 592 610 b 406 868 592 821 517 868 b 219 717 294 868 219 821 b 406 565 219 610 294 565 m 406 92 b 640 274 549 92 640 154 b 406 454 640 390 549 454 b 171 274 263 454 171 390 b 406 92 171 154 263 92 "},"9":{"ha":804,"x_min":0,"x_max":0,"o":"m 624 476 b 367 333 576 386 479 333 b 56 650 183 333 56 460 b 389 979 56 828 181 979 b 749 479 651 979 749 785 b 385 -19 749 160 624 -19 b 81 243 206 -19 94 103 l 206 243 b 385 92 218 150 276 92 b 624 474 583 92 621 281 l 624 476 m 389 868 b 181 658 257 868 181 786 b 378 444 181 521 264 444 b 610 661 517 444 610 532 b 389 868 610 785 528 868 "},"A":{"ha":899,"x_min":0,"x_max":0,"o":"m 231 249 l 143 0 l 14 0 l 381 993 l 519 993 l 885 0 l 756 0 l 668 249 m 628 360 l 451 878 l 449 878 l 272 360 "},"Á":{"ha":899,"x_min":0,"x_max":0,"o":"m 594 1292 l 493 1115 l 403 1115 l 463 1292 m 231 249 l 143 0 l 14 0 l 381 993 l 519 993 l 885 0 l 756 0 l 668 249 m 628 360 l 451 878 l 449 878 l 272 360 "},"Ă":{"ha":899,"x_min":0,"x_max":0,"o":"m 450 1110 b 274 1292 351 1110 278 1168 l 357 1292 b 450 1193 361 1224 390 1193 b 543 1292 510 1193 539 1224 l 626 1292 b 450 1110 621 1172 551 1110 m 231 249 l 143 0 l 14 0 l 381 993 l 519 993 l 885 0 l 756 0 l 668 249 m 628 360 l 451 878 l 449 878 l 272 360 "},"Â":{"ha":899,"x_min":0,"x_max":0,"o":"m 388 1292 l 513 1292 l 640 1115 l 529 1115 l 451 1232 l 449 1232 l 371 1115 l 260 1115 m 231 249 l 143 0 l 14 0 l 381 993 l 519 993 l 885 0 l 756 0 l 668 249 m 628 360 l 451 878 l 449 878 l 272 360 "},"Ä":{"ha":899,"x_min":0,"x_max":0,"o":"m 276 1221 b 346 1290 276 1258 301 1290 b 415 1221 390 1290 415 1258 b 346 1153 415 1185 390 1153 b 276 1221 301 1153 276 1185 m 485 1221 b 554 1290 485 1258 510 1290 b 624 1221 599 1290 624 1258 b 554 1153 624 1185 599 1153 b 485 1221 510 1153 485 1185 m 231 249 l 143 0 l 14 0 l 381 993 l 519 993 l 885 0 l 756 0 l 668 249 m 628 360 l 451 878 l 449 878 l 272 360 "},"À":{"ha":899,"x_min":0,"x_max":0,"o":"m 497 1115 l 407 1115 l 306 1292 l 438 1292 m 231 249 l 143 0 l 14 0 l 381 993 l 519 993 l 885 0 l 756 0 l 668 249 m 628 360 l 451 878 l 449 878 l 272 360 "},"Ā":{"ha":899,"x_min":0,"x_max":0,"o":"m 629 1257 l 629 1160 l 271 1160 l 271 1257 m 231 249 l 143 0 l 14 0 l 381 993 l 519 993 l 885 0 l 756 0 l 668 249 m 628 360 l 451 878 l 449 878 l 272 360 "},"Ą":{"ha":899,"x_min":0,"x_max":0,"o":"m 764 -119 b 815 -162 764 -147 788 -162 b 883 -149 843 -162 864 -157 l 883 -232 b 793 -246 857 -240 824 -246 b 667 -143 710 -246 667 -204 b 772 0 667 -78 722 -21 l 756 0 l 668 249 l 231 249 l 143 0 l 14 0 l 381 993 l 519 993 l 885 0 l 856 0 b 764 -119 796 -47 764 -89 m 628 360 l 451 878 l 449 878 l 272 360 "},"Å":{"ha":899,"x_min":0,"x_max":0,"o":"m 449 1094 b 328 1215 383 1094 328 1143 b 449 1338 328 1286 383 1338 b 571 1215 515 1338 571 1286 b 449 1094 571 1143 515 1094 m 449 1150 b 514 1215 482 1150 514 1175 b 449 1282 514 1256 482 1282 b 385 1215 415 1282 385 1256 b 449 1150 385 1175 415 1150 m 231 249 l 143 0 l 14 0 l 381 993 l 519 993 l 885 0 l 756 0 l 668 249 m 628 360 l 451 878 l 449 878 l 272 360 "},"Ã":{"ha":899,"x_min":0,"x_max":0,"o":"m 256 1150 b 358 1281 256 1243 307 1281 b 528 1231 426 1281 490 1231 b 560 1278 557 1231 560 1258 l 643 1278 b 540 1147 643 1182 592 1147 b 371 1197 472 1147 408 1197 b 339 1150 342 1197 339 1167 l 256 1150 m 231 249 l 143 0 l 14 0 l 381 993 l 519 993 l 885 0 l 756 0 l 668 249 m 628 360 l 451 878 l 449 878 l 272 360 "},"Æ":{"ha":1371,"x_min":0,"x_max":0,"o":"m 1318 111 l 1318 0 l 600 0 l 600 249 l 236 249 l 149 0 l 19 0 l 386 993 l 1301 993 l 1301 882 l 725 882 l 725 569 l 1235 569 l 1235 458 l 725 458 l 725 111 m 600 360 l 600 878 l 454 878 l 278 360 "},"B":{"ha":894,"x_min":0,"x_max":0,"o":"m 818 743 b 664 538 818 621 746 565 l 664 535 b 857 289 768 517 857 438 b 521 0 857 106 726 0 l 93 0 l 93 993 l 493 993 b 818 743 696 993 818 897 m 513 578 b 693 729 654 578 693 639 b 526 882 693 819 640 882 l 218 882 l 218 578 m 218 111 l 533 111 b 732 289 693 111 732 196 b 561 467 732 396 665 467 l 218 467 "},"C":{"ha":985,"x_min":0,"x_max":0,"o":"m 813 665 b 515 901 794 760 722 901 b 181 497 279 901 181 697 b 515 92 181 296 279 92 b 813 358 724 92 804 233 l 938 358 b 515 -19 915 139 760 -19 b 56 497 243 -19 56 197 b 515 1013 56 796 243 1013 b 938 665 758 1013 914 854 l 813 665 "},"Ć":{"ha":985,"x_min":0,"x_max":0,"o":"m 658 1292 l 557 1115 l 467 1115 l 526 1292 m 813 665 b 515 901 794 760 722 901 b 181 497 279 901 181 697 b 515 92 181 296 279 92 b 813 358 724 92 804 233 l 938 358 b 515 -19 915 139 760 -19 b 56 497 243 -19 56 197 b 515 1013 56 796 243 1013 b 938 665 758 1013 914 854 l 813 665 "},"Č":{"ha":985,"x_min":0,"x_max":0,"o":"m 435 1292 l 513 1175 l 515 1175 l 593 1292 l 704 1292 l 576 1115 l 451 1115 l 324 1292 m 813 665 b 515 901 794 760 722 901 b 181 497 279 901 181 697 b 515 92 181 296 279 92 b 813 358 724 92 804 233 l 938 358 b 515 -19 915 139 760 -19 b 56 497 243 -19 56 197 b 515 1013 56 796 243 1013 b 938 665 758 1013 914 854 l 813 665 "},"Ç":{"ha":985,"x_min":0,"x_max":0,"o":"m 515 92 b 813 358 724 92 804 233 l 938 358 b 544 -18 917 147 772 -7 l 493 -82 l 493 -85 b 628 -168 547 -76 628 -96 b 483 -272 628 -235 556 -272 b 335 -232 426 -272 368 -256 l 364 -197 b 468 -218 397 -210 425 -218 b 544 -167 514 -218 544 -196 b 475 -129 544 -140 524 -129 b 419 -139 460 -129 432 -133 l 403 -112 l 475 -18 b 56 497 225 3 56 213 b 515 1013 56 796 243 1013 b 938 665 758 1013 914 854 l 813 665 b 515 901 794 760 722 901 b 181 497 279 901 181 697 b 515 92 181 296 279 92 "},"Ċ":{"ha":985,"x_min":0,"x_max":0,"o":"m 444 1221 b 514 1290 444 1258 469 1290 b 583 1221 558 1290 583 1258 b 514 1153 583 1185 558 1153 b 444 1221 469 1153 444 1185 m 813 665 b 515 901 794 760 722 901 b 181 497 279 901 181 697 b 515 92 181 296 279 92 b 813 358 724 92 804 233 l 938 358 b 515 -19 915 139 760 -19 b 56 497 243 -19 56 197 b 515 1013 56 796 243 1013 b 938 665 758 1013 914 854 l 813 665 "},"D":{"ha":950,"x_min":0,"x_max":0,"o":"m 93 993 l 453 993 b 894 496 726 993 894 815 b 453 0 894 176 726 0 l 93 0 m 218 111 l 453 111 b 769 496 706 111 769 301 b 453 882 769 690 706 882 l 218 882 "},"Ð":{"ha":961,"x_min":0,"x_max":0,"o":"m 464 993 b 906 496 738 993 906 815 b 464 0 906 176 738 0 l 104 0 l 104 465 l 7 465 l 7 563 l 104 563 l 104 993 l 464 993 m 464 111 b 781 496 717 111 781 301 b 464 882 781 690 717 882 l 229 882 l 229 563 l 546 563 l 546 465 l 229 465 l 229 111 l 464 111 "},"Ď":{"ha":950,"x_min":0,"x_max":0,"o":"m 290 1292 l 368 1175 l 371 1175 l 449 1292 l 560 1292 l 432 1115 l 307 1115 l 179 1292 m 93 993 l 453 993 b 894 496 726 993 894 815 b 453 0 894 176 726 0 l 93 0 m 218 111 l 453 111 b 769 496 706 111 769 301 b 453 882 769 690 706 882 l 218 882 "},"Đ":{"ha":961,"x_min":0,"x_max":0,"o":"m 464 993 b 906 496 738 993 906 815 b 464 0 906 176 738 0 l 104 0 l 104 465 l 7 465 l 7 563 l 104 563 l 104 993 l 464 993 m 464 111 b 781 496 717 111 781 301 b 464 882 781 690 717 882 l 229 882 l 229 563 l 546 563 l 546 465 l 229 465 l 229 111 l 464 111 "},"E":{"ha":864,"x_min":0,"x_max":0,"o":"m 728 569 l 728 458 l 218 458 l 218 111 l 811 111 l 811 0 l 93 0 l 93 993 l 794 993 l 794 882 l 218 882 l 218 569 "},"É":{"ha":864,"x_min":0,"x_max":0,"o":"m 597 1292 l 496 1115 l 406 1115 l 465 1292 m 728 569 l 728 458 l 218 458 l 218 111 l 811 111 l 811 0 l 93 0 l 93 993 l 794 993 l 794 882 l 218 882 l 218 569 "},"Ě":{"ha":864,"x_min":0,"x_max":0,"o":"m 374 1292 l 451 1175 l 454 1175 l 532 1292 l 643 1292 l 515 1115 l 390 1115 l 263 1292 m 728 569 l 728 458 l 218 458 l 218 111 l 811 111 l 811 0 l 93 0 l 93 993 l 794 993 l 794 882 l 218 882 l 218 569 "},"Ê":{"ha":864,"x_min":0,"x_max":0,"o":"m 390 1292 l 515 1292 l 643 1115 l 532 1115 l 454 1232 l 451 1232 l 374 1115 l 263 1115 m 728 569 l 728 458 l 218 458 l 218 111 l 811 111 l 811 0 l 93 0 l 93 993 l 794 993 l 794 882 l 218 882 l 218 569 "},"Ë":{"ha":864,"x_min":0,"x_max":0,"o":"m 279 1221 b 349 1290 279 1258 304 1290 b 418 1221 393 1290 418 1258 b 349 1153 418 1185 393 1153 b 279 1221 304 1153 279 1185 m 488 1221 b 557 1290 488 1258 513 1290 b 626 1221 601 1290 626 1258 b 557 1153 626 1185 601 1153 b 488 1221 513 1153 488 1185 m 728 569 l 728 458 l 218 458 l 218 111 l 811 111 l 811 0 l 93 0 l 93 993 l 794 993 l 794 882 l 218 882 l 218 569 "},"Ė":{"ha":864,"x_min":0,"x_max":0,"o":"m 383 1221 b 453 1290 383 1258 408 1290 b 522 1221 497 1290 522 1258 b 453 1153 522 1185 497 1153 b 383 1221 408 1153 383 1185 m 728 569 l 728 458 l 218 458 l 218 111 l 811 111 l 811 0 l 93 0 l 93 993 l 794 993 l 794 882 l 218 882 l 218 569 "},"È":{"ha":864,"x_min":0,"x_max":0,"o":"m 500 1115 l 410 1115 l 308 1292 l 440 1292 m 728 569 l 728 458 l 218 458 l 218 111 l 811 111 l 811 0 l 93 0 l 93 993 l 794 993 l 794 882 l 218 882 l 218 569 "},"Ē":{"ha":864,"x_min":0,"x_max":0,"o":"m 632 1257 l 632 1160 l 274 1160 l 274 1257 m 728 569 l 728 458 l 218 458 l 218 111 l 811 111 l 811 0 l 93 0 l 93 993 l 794 993 l 794 882 l 218 882 l 218 569 "},"Ę":{"ha":864,"x_min":0,"x_max":0,"o":"m 757 -162 b 825 -149 785 -162 806 -157 l 825 -232 b 735 -246 799 -240 765 -246 b 608 -143 651 -246 608 -204 b 714 0 608 -78 664 -21 l 93 0 l 93 993 l 794 993 l 794 882 l 218 882 l 218 569 l 728 569 l 728 458 l 218 458 l 218 111 l 811 111 l 811 0 l 797 0 b 706 -119 738 -47 706 -89 b 757 -162 706 -147 729 -162 "},"F":{"ha":803,"x_min":0,"x_max":0,"o":"m 661 560 l 661 449 l 218 449 l 218 0 l 93 0 l 93 993 l 767 993 l 767 882 l 218 882 l 218 560 "},"G":{"ha":1031,"x_min":0,"x_max":0,"o":"m 810 693 b 517 901 781 835 667 901 b 181 497 281 901 181 683 b 503 92 181 310 253 92 b 826 406 681 92 826 219 l 503 406 l 503 517 l 951 517 l 951 0 l 868 0 l 826 140 l 824 140 b 503 -19 749 36 656 -19 b 56 497 214 -19 56 197 b 517 1013 56 796 242 1013 b 935 693 768 1013 900 882 l 810 693 "},"Ğ":{"ha":1031,"x_min":0,"x_max":0,"o":"m 510 1110 b 333 1292 411 1110 338 1168 l 417 1292 b 510 1193 421 1224 450 1193 b 603 1292 569 1193 599 1224 l 686 1292 b 510 1110 681 1172 611 1110 m 810 693 b 517 901 781 835 667 901 b 181 497 281 901 181 683 b 503 92 181 310 253 92 b 826 406 681 92 826 219 l 503 406 l 503 517 l 951 517 l 951 0 l 868 0 l 826 140 l 824 140 b 503 -19 749 36 656 -19 b 56 497 214 -19 56 197 b 517 1013 56 796 242 1013 b 935 693 768 1013 900 882 l 810 693 "},"Ģ":{"ha":1031,"x_min":0,"x_max":0,"o":"m 810 693 b 517 901 781 835 667 901 b 181 497 281 901 181 683 b 503 92 181 310 253 92 b 826 406 681 92 826 219 l 503 406 l 503 517 l 951 517 l 951 0 l 868 0 l 826 140 l 824 140 b 503 -19 749 36 656 -19 b 56 497 214 -19 56 197 b 517 1013 56 796 242 1013 b 935 693 768 1013 900 882 l 810 693 m 533 -225 b 450 -158 490 -239 450 -219 b 522 -82 450 -112 483 -82 b 603 -200 576 -82 603 -131 b 464 -365 603 -260 572 -346 l 464 -310 b 533 -225 507 -300 533 -276 "},"Ġ":{"ha":1031,"x_min":0,"x_max":0,"o":"m 440 1221 b 510 1290 440 1258 465 1290 b 579 1221 554 1290 579 1258 b 510 1153 579 1185 554 1153 b 440 1221 465 1153 440 1185 m 810 693 b 517 901 781 835 667 901 b 181 497 281 901 181 683 b 503 92 181 310 253 92 b 826 406 681 92 826 219 l 503 406 l 503 517 l 951 517 l 951 0 l 868 0 l 826 140 l 824 140 b 503 -19 749 36 656 -19 b 56 497 214 -19 56 197 b 517 1013 56 796 242 1013 b 935 693 768 1013 900 882 l 810 693 "},"H":{"ha":967,"x_min":0,"x_max":0,"o":"m 218 993 l 218 571 l 749 571 l 749 993 l 874 993 l 874 0 l 749 0 l 749 460 l 218 460 l 218 0 l 93 0 l 93 993 "},"Ħ":{"ha":967,"x_min":0,"x_max":0,"o":"m 971 743 l 874 743 l 874 0 l 749 0 l 749 460 l 218 460 l 218 0 l 93 0 l 93 743 l -4 743 l -4 840 l 93 840 l 93 993 l 218 993 l 218 840 l 749 840 l 749 993 l 874 993 l 874 840 l 971 840 m 749 743 l 218 743 l 218 571 l 749 571 "},"I":{"ha":317,"x_min":0,"x_max":0,"o":"m 221 993 l 221 0 l 96 0 l 96 993 "},"Í":{"ha":317,"x_min":0,"x_max":0,"o":"m 303 1292 l 201 1115 l 111 1115 l 171 1292 m 221 993 l 221 0 l 96 0 l 96 993 "},"Î":{"ha":317,"x_min":0,"x_max":0,"o":"m 96 1292 l 221 1292 l 349 1115 l 238 1115 l 160 1232 l 157 1232 l 79 1115 l -32 1115 m 221 993 l 221 0 l 96 0 l 96 993 "},"Ï":{"ha":317,"x_min":0,"x_max":0,"o":"m -15 1221 b 54 1290 -15 1258 10 1290 b 124 1221 99 1290 124 1258 b 54 1153 124 1185 99 1153 b -15 1221 10 1153 -15 1185 m 193 1221 b 263 1290 193 1258 218 1290 b 332 1221 307 1290 332 1258 b 263 1153 332 1185 307 1153 b 193 1221 218 1153 193 1185 m 221 993 l 221 0 l 96 0 l 96 993 "},"İ":{"ha":317,"x_min":0,"x_max":0,"o":"m 89 1221 b 158 1290 89 1258 114 1290 b 228 1221 203 1290 228 1258 b 158 1153 228 1185 203 1153 b 89 1221 114 1153 89 1185 m 221 993 l 221 0 l 96 0 l 96 993 "},"Ì":{"ha":317,"x_min":0,"x_max":0,"o":"m 206 1115 l 115 1115 l 14 1292 l 146 1292 m 221 993 l 221 0 l 96 0 l 96 993 "},"Ī":{"ha":317,"x_min":0,"x_max":0,"o":"m 338 1257 l 338 1160 l -21 1160 l -21 1257 m 221 993 l 221 0 l 96 0 l 96 993 "},"Į":{"ha":317,"x_min":0,"x_max":0,"o":"m 181 -162 b 249 -149 208 -162 229 -157 l 249 -232 b 158 -246 222 -240 189 -246 b 32 -143 75 -246 32 -204 b 138 0 32 -78 88 -21 l 96 0 l 96 993 l 221 993 l 221 0 b 129 -119 161 -47 129 -89 b 181 -162 129 -147 153 -162 "},"J":{"ha":690,"x_min":0,"x_max":0,"o":"m 610 303 b 319 -19 610 142 543 -19 b 31 303 96 -19 31 142 l 31 331 l 156 331 l 156 303 b 319 92 156 183 175 92 b 485 303 464 92 485 183 l 485 993 l 610 993 l 610 303 "},"K":{"ha":894,"x_min":0,"x_max":0,"o":"m 218 993 l 218 461 l 717 993 l 869 993 l 479 581 l 897 0 l 751 0 l 396 494 l 218 307 l 218 0 l 93 0 l 93 993 "},"Ķ":{"ha":894,"x_min":0,"x_max":0,"o":"m 218 993 l 218 461 l 717 993 l 869 993 l 479 581 l 897 0 l 751 0 l 396 494 l 218 307 l 218 0 l 93 0 l 93 993 m 503 -225 b 419 -158 460 -239 419 -219 b 492 -82 419 -112 453 -82 b 572 -200 546 -82 572 -131 b 433 -365 572 -260 542 -346 l 433 -310 b 503 -225 476 -300 503 -276 "},"L":{"ha":769,"x_min":0,"x_max":0,"o":"m 218 993 l 218 111 l 739 111 l 739 0 l 93 0 l 93 993 "},"Ĺ":{"ha":769,"x_min":0,"x_max":0,"o":"m 300 1292 l 199 1115 l 108 1115 l 168 1292 m 218 993 l 218 111 l 739 111 l 739 0 l 93 0 l 93 993 "},"Ľ":{"ha":769,"x_min":0,"x_max":0,"o":"m 482 844 b 379 921 421 831 379 867 b 460 1000 379 967 407 1000 b 546 883 517 1000 546 951 b 390 714 546 819 504 726 l 390 764 b 482 844 431 771 482 807 m 218 993 l 218 111 l 739 111 l 739 0 l 93 0 l 93 993 "},"Ļ":{"ha":769,"x_min":0,"x_max":0,"o":"m 218 993 l 218 111 l 739 111 l 739 0 l 93 0 l 93 993 m 424 -225 b 340 -158 381 -239 340 -219 b 413 -82 340 -112 374 -82 b 493 -200 467 -82 493 -131 b 354 -365 493 -260 463 -346 l 354 -310 b 424 -225 397 -300 424 -276 "},"Ł":{"ha":767,"x_min":0,"x_max":0,"o":"m 736 111 l 736 0 l 90 0 l 90 336 l -7 265 l -7 372 l 90 443 l 90 993 l 215 993 l 215 535 l 451 708 l 451 601 l 215 428 l 215 111 "},"M":{"ha":1153,"x_min":0,"x_max":0,"o":"m 93 993 l 264 993 l 575 168 l 578 168 l 889 993 l 1060 993 l 1060 0 l 935 0 l 935 817 l 932 817 l 632 0 l 521 0 l 221 817 l 218 817 l 218 0 l 93 0 "},"N":{"ha":963,"x_min":0,"x_max":0,"o":"m 93 993 l 246 993 l 742 175 l 744 175 l 744 993 l 869 993 l 869 0 l 717 0 l 221 815 l 218 815 l 218 0 l 93 0 "},"Ń":{"ha":963,"x_min":0,"x_max":0,"o":"m 626 1292 l 525 1115 l 435 1115 l 494 1292 m 93 993 l 246 993 l 742 175 l 744 175 l 744 993 l 869 993 l 869 0 l 717 0 l 221 815 l 218 815 l 218 0 l 93 0 "},"Ň":{"ha":963,"x_min":0,"x_max":0,"o":"m 403 1292 l 481 1175 l 483 1175 l 561 1292 l 672 1292 l 544 1115 l 419 1115 l 292 1292 m 93 993 l 246 993 l 742 175 l 744 175 l 744 993 l 869 993 l 869 0 l 717 0 l 221 815 l 218 815 l 218 0 l 93 0 "},"Ņ":{"ha":963,"x_min":0,"x_max":0,"o":"m 93 993 l 246 993 l 742 175 l 744 175 l 744 993 l 869 993 l 869 0 l 717 0 l 221 815 l 218 815 l 218 0 l 93 0 m 489 -225 b 406 -158 446 -239 406 -219 b 478 -82 406 -112 439 -82 b 558 -200 532 -82 558 -131 b 419 -365 558 -260 528 -346 l 419 -310 b 489 -225 463 -300 489 -276 "},"Ŋ":{"ha":963,"x_min":0,"x_max":0,"o":"m 93 993 l 246 993 l 742 175 l 744 175 l 744 993 l 869 993 l 869 0 b 624 -247 869 -179 764 -247 b 546 -239 590 -247 565 -244 l 546 -142 b 733 -26 654 -154 732 -128 l 221 815 l 218 815 l 218 0 l 93 0 "},"Ñ":{"ha":963,"x_min":0,"x_max":0,"o":"m 288 1150 b 390 1281 288 1243 339 1281 b 560 1231 458 1281 522 1231 b 592 1278 589 1231 592 1258 l 675 1278 b 572 1147 675 1182 624 1147 b 403 1197 504 1147 440 1197 b 371 1150 374 1197 371 1167 l 288 1150 m 93 993 l 246 993 l 742 175 l 744 175 l 744 993 l 869 993 l 869 0 l 717 0 l 221 815 l 218 815 l 218 0 l 93 0 "},"O":{"ha":1083,"x_min":0,"x_max":0,"o":"m 542 -19 b 56 497 250 -19 56 199 b 542 1013 56 796 250 1013 b 1028 497 833 1013 1028 796 b 542 -19 1028 199 833 -19 m 542 92 b 903 497 792 92 903 283 b 542 901 903 711 792 901 b 181 497 292 901 181 711 b 542 92 181 283 292 92 "},"Ó":{"ha":1083,"x_min":0,"x_max":0,"o":"m 686 1292 l 585 1115 l 494 1115 l 554 1292 m 542 -19 b 56 497 250 -19 56 199 b 542 1013 56 796 250 1013 b 1028 497 833 1013 1028 796 b 542 -19 1028 199 833 -19 m 542 92 b 903 497 792 92 903 283 b 542 901 903 711 792 901 b 181 497 292 901 181 711 b 542 92 181 283 292 92 "},"Ô":{"ha":1083,"x_min":0,"x_max":0,"o":"m 479 1292 l 604 1292 l 732 1115 l 621 1115 l 543 1232 l 540 1232 l 463 1115 l 351 1115 m 542 -19 b 56 497 250 -19 56 199 b 542 1013 56 796 250 1013 b 1028 497 833 1013 1028 796 b 542 -19 1028 199 833 -19 m 542 92 b 903 497 792 92 903 283 b 542 901 903 711 792 901 b 181 497 292 901 181 711 b 542 92 181 283 292 92 "},"Ö":{"ha":1083,"x_min":0,"x_max":0,"o":"m 368 1221 b 438 1290 368 1258 393 1290 b 507 1221 482 1290 507 1258 b 438 1153 507 1185 482 1153 b 368 1221 393 1153 368 1185 m 576 1221 b 646 1290 576 1258 601 1290 b 715 1221 690 1290 715 1258 b 646 1153 715 1185 690 1153 b 576 1221 601 1153 576 1185 m 542 -19 b 56 497 250 -19 56 199 b 542 1013 56 796 250 1013 b 1028 497 833 1013 1028 796 b 542 -19 1028 199 833 -19 m 542 92 b 903 497 792 92 903 283 b 542 901 903 711 792 901 b 181 497 292 901 181 711 b 542 92 181 283 292 92 "},"Ò":{"ha":1083,"x_min":0,"x_max":0,"o":"m 589 1115 l 499 1115 l 397 1292 l 529 1292 m 542 -19 b 56 497 250 -19 56 199 b 542 1013 56 796 250 1013 b 1028 497 833 1013 1028 796 b 542 -19 1028 199 833 -19 m 542 92 b 903 497 792 92 903 283 b 542 901 903 711 792 901 b 181 497 292 901 181 711 b 542 92 181 283 292 92 "},"Ő":{"ha":1083,"x_min":0,"x_max":0,"o":"m 581 1292 l 479 1115 l 389 1115 l 449 1292 m 778 1292 l 676 1115 l 586 1115 l 646 1292 m 542 -19 b 56 497 250 -19 56 199 b 542 1013 56 796 250 1013 b 1028 497 833 1013 1028 796 b 542 -19 1028 199 833 -19 m 542 92 b 903 497 792 92 903 283 b 542 901 903 711 792 901 b 181 497 292 901 181 711 b 542 92 181 283 292 92 "},"Ō":{"ha":1083,"x_min":0,"x_max":0,"o":"m 721 1257 l 721 1160 l 363 1160 l 363 1257 m 542 -19 b 56 497 250 -19 56 199 b 542 1013 56 796 250 1013 b 1028 497 833 1013 1028 796 b 542 -19 1028 199 833 -19 m 542 92 b 903 497 792 92 903 283 b 542 901 903 711 792 901 b 181 497 292 901 181 711 b 542 92 181 283 292 92 "},"Ø":{"ha":1085,"x_min":0,"x_max":0,"o":"m 924 832 b 1028 497 990 743 1028 628 b 542 -19 1028 199 833 -19 b 204 111 404 -19 289 29 l 100 7 l 53 56 l 160 163 b 56 497 93 251 56 367 b 542 1013 56 796 250 1013 b 878 883 679 1013 794 965 l 982 988 l 1032 940 m 181 497 b 244 247 181 406 201 318 l 797 801 b 542 901 738 863 654 901 b 181 497 292 901 181 711 m 903 497 b 839 747 903 589 882 676 l 286 193 b 542 92 344 131 429 92 b 903 497 792 92 903 283 "},"Õ":{"ha":1083,"x_min":0,"x_max":0,"o":"m 347 1150 b 450 1281 347 1243 399 1281 b 619 1231 518 1281 582 1231 b 651 1278 649 1231 651 1258 l 735 1278 b 632 1147 735 1182 683 1147 b 463 1197 564 1147 500 1197 b 431 1150 433 1197 431 1167 l 347 1150 m 542 -19 b 56 497 250 -19 56 199 b 542 1013 56 796 250 1013 b 1028 497 833 1013 1028 796 b 542 -19 1028 199 833 -19 m 542 92 b 903 497 792 92 903 283 b 542 901 903 711 792 901 b 181 497 292 901 181 711 b 542 92 181 283 292 92 "},"Œ":{"ha":1489,"x_min":0,"x_max":0,"o":"m 1436 111 l 1436 0 l 718 0 l 718 92 b 458 -19 651 13 561 -19 b 56 497 222 -19 56 199 b 458 1013 56 796 222 1013 b 718 903 561 1013 651 981 l 718 993 l 1419 993 l 1419 882 l 843 882 l 843 569 l 1353 569 l 1353 458 l 843 458 l 843 111 m 486 92 b 718 235 579 92 665 136 l 718 758 b 486 901 665 857 579 901 b 181 497 264 901 181 711 b 486 92 181 283 264 92 "},"P":{"ha":838,"x_min":0,"x_max":0,"o":"m 93 993 l 488 993 b 810 704 669 993 810 913 b 488 415 810 496 669 415 l 218 415 l 218 0 l 93 0 m 218 526 l 501 526 b 685 704 625 526 685 583 b 501 882 685 825 625 882 l 218 882 "},"Þ":{"ha":833,"x_min":0,"x_max":0,"o":"m 93 993 l 218 993 l 218 826 l 488 826 b 810 538 669 826 810 746 b 488 249 810 329 669 249 l 218 249 l 218 0 l 93 0 m 218 360 l 501 360 b 685 538 625 360 685 417 b 501 715 685 658 625 715 l 218 715 "},"Q":{"ha":1083,"x_min":0,"x_max":0,"o":"m 1028 497 b 910 146 1028 357 985 236 l 1026 29 l 947 -50 l 829 68 b 542 -19 751 13 653 -19 b 56 497 250 -19 56 199 b 542 1013 56 796 250 1013 b 1028 497 833 1013 1028 796 m 542 92 b 747 150 625 92 693 114 l 610 288 l 689 367 l 826 229 b 903 497 878 301 903 397 b 542 901 903 711 792 901 b 181 497 292 901 181 711 b 542 92 181 283 292 92 "},"R":{"ha":879,"x_min":0,"x_max":0,"o":"m 93 993 l 496 993 b 824 711 692 993 824 888 b 646 461 824 568 756 489 l 646 458 b 838 8 867 415 786 25 l 838 0 l 703 0 b 503 401 660 42 754 401 l 218 401 l 218 0 l 93 0 m 218 513 l 467 513 b 699 697 569 513 699 525 b 467 882 699 869 569 882 l 218 882 "},"Ŕ":{"ha":879,"x_min":0,"x_max":0,"o":"m 568 1292 l 467 1115 l 376 1115 l 436 1292 m 93 993 l 496 993 b 824 711 692 993 824 888 b 646 461 824 568 756 489 l 646 458 b 838 8 867 415 786 25 l 838 0 l 703 0 b 503 401 660 42 754 401 l 218 401 l 218 0 l 93 0 m 218 513 l 467 513 b 699 697 569 513 699 525 b 467 882 699 869 569 882 l 218 882 "},"Ř":{"ha":879,"x_min":0,"x_max":0,"o":"m 344 1292 l 422 1175 l 425 1175 l 503 1292 l 614 1292 l 486 1115 l 361 1115 l 233 1292 m 93 993 l 496 993 b 824 711 692 993 824 888 b 646 461 824 568 756 489 l 646 458 b 838 8 867 415 786 25 l 838 0 l 703 0 b 503 401 660 42 754 401 l 218 401 l 218 0 l 93 0 m 218 513 l 467 513 b 699 697 569 513 699 525 b 467 882 699 869 569 882 l 218 882 "},"Ŗ":{"ha":879,"x_min":0,"x_max":0,"o":"m 93 993 l 496 993 b 824 711 692 993 824 888 b 646 461 824 568 756 489 l 646 458 b 838 8 867 415 786 25 l 838 0 l 703 0 b 503 401 660 42 754 401 l 218 401 l 218 0 l 93 0 m 218 513 l 467 513 b 699 697 569 513 699 525 b 467 882 699 869 569 882 l 218 882 m 458 -225 b 375 -158 415 -239 375 -219 b 447 -82 375 -112 408 -82 b 528 -200 501 -82 528 -131 b 389 -365 528 -260 497 -346 l 389 -310 b 458 -225 432 -300 458 -276 "},"S":{"ha":869,"x_min":0,"x_max":0,"o":"m 450 579 b 819 260 674 524 819 486 b 461 -19 819 115 713 -19 b 31 333 226 -19 44 106 l 156 333 b 461 92 169 197 253 92 b 694 260 633 92 694 171 b 399 472 694 396 621 421 b 72 751 250 507 72 558 b 413 1013 72 908 193 1013 b 788 699 624 1013 771 904 l 663 699 b 413 901 644 832 569 901 b 197 765 272 901 197 847 b 450 579 197 633 304 615 "},"Ś":{"ha":869,"x_min":0,"x_max":0,"o":"m 563 1292 l 461 1115 l 371 1115 l 431 1292 m 450 579 b 819 260 674 524 819 486 b 461 -19 819 115 713 -19 b 31 333 226 -19 44 106 l 156 333 b 461 92 169 197 253 92 b 694 260 633 92 694 171 b 399 472 694 396 621 421 b 72 751 250 507 72 558 b 413 1013 72 908 193 1013 b 788 699 624 1013 771 904 l 663 699 b 413 901 644 832 569 901 b 197 765 272 901 197 847 b 450 579 197 633 304 615 "},"Š":{"ha":869,"x_min":0,"x_max":0,"o":"m 339 1292 l 417 1175 l 419 1175 l 497 1292 l 608 1292 l 481 1115 l 356 1115 l 228 1292 m 450 579 b 819 260 674 524 819 486 b 461 -19 819 115 713 -19 b 31 333 226 -19 44 106 l 156 333 b 461 92 169 197 253 92 b 694 260 633 92 694 171 b 399 472 694 396 621 421 b 72 751 250 507 72 558 b 413 1013 72 908 193 1013 b 788 699 624 1013 771 904 l 663 699 b 413 901 644 832 569 901 b 197 765 272 901 197 847 b 450 579 197 633 304 615 "},"Ş":{"ha":869,"x_min":0,"x_max":0,"o":"m 460 -82 l 460 -85 b 594 -168 514 -76 594 -96 b 450 -272 594 -235 522 -272 b 301 -232 393 -272 335 -256 l 331 -197 b 435 -218 364 -210 392 -218 b 511 -167 481 -218 511 -196 b 442 -129 511 -140 490 -129 b 386 -139 426 -129 399 -133 l 369 -112 l 442 -19 b 31 333 217 -12 44 113 l 156 333 b 461 92 169 197 253 92 b 694 260 633 92 694 171 b 399 472 694 396 621 421 b 72 751 250 507 72 558 b 413 1013 72 908 193 1013 b 788 699 624 1013 771 904 l 663 699 b 413 901 644 832 569 901 b 197 765 272 901 197 847 b 450 579 197 633 304 615 b 819 260 674 524 819 486 b 511 -18 819 125 726 0 "},"Ș":{"ha":869,"x_min":0,"x_max":0,"o":"m 450 579 b 819 260 674 524 819 486 b 461 -19 819 115 713 -19 b 31 333 226 -19 44 106 l 156 333 b 461 92 169 197 253 92 b 694 260 633 92 694 171 b 399 472 694 396 621 421 b 72 751 250 507 72 558 b 413 1013 72 908 193 1013 b 788 699 624 1013 771 904 l 663 699 b 413 901 644 832 569 901 b 197 765 272 901 197 847 b 450 579 197 633 304 615 m 488 -225 b 404 -158 444 -239 404 -219 b 476 -82 404 -112 438 -82 b 557 -200 531 -82 557 -131 b 418 -365 557 -260 526 -346 l 418 -310 b 488 -225 461 -300 488 -276 "},"T":{"ha":847,"x_min":0,"x_max":0,"o":"m 361 882 l 31 882 l 31 993 l 817 993 l 817 882 l 486 882 l 486 0 l 361 0 "},"Ŧ":{"ha":847,"x_min":0,"x_max":0,"o":"m 486 882 l 486 563 l 707 563 l 707 465 l 486 465 l 486 0 l 361 0 l 361 465 l 140 465 l 140 563 l 361 563 l 361 882 l 31 882 l 31 993 l 817 993 l 817 882 "},"Ť":{"ha":847,"x_min":0,"x_max":0,"o":"m 344 1292 l 422 1175 l 425 1175 l 503 1292 l 614 1292 l 486 1115 l 361 1115 l 233 1292 m 361 882 l 31 882 l 31 993 l 817 993 l 817 882 l 486 882 l 486 0 l 361 0 "},"Ţ":{"ha":847,"x_min":0,"x_max":0,"o":"m 403 -72 l 403 -75 b 538 -158 457 -67 538 -86 b 393 -262 538 -225 465 -262 b 244 -222 336 -262 278 -246 l 274 -187 b 378 -208 307 -200 335 -208 b 454 -157 424 -208 454 -186 b 385 -119 454 -131 433 -119 b 329 -129 369 -119 342 -124 l 313 -103 l 392 0 l 361 0 l 361 882 l 31 882 l 31 993 l 817 993 l 817 882 l 486 882 l 486 0 l 461 0 "},"Ț":{"ha":847,"x_min":0,"x_max":0,"o":"m 361 882 l 31 882 l 31 993 l 817 993 l 817 882 l 486 882 l 486 0 l 361 0 m 431 -215 b 347 -149 388 -229 347 -210 b 419 -72 347 -103 381 -72 b 500 -190 474 -72 500 -121 b 361 -356 500 -250 469 -336 l 361 -300 b 431 -215 404 -290 431 -267 "},"U":{"ha":914,"x_min":0,"x_max":0,"o":"m 838 331 b 457 -19 838 128 722 -19 b 76 331 192 -19 76 128 l 76 993 l 201 993 l 201 331 b 457 92 201 169 285 92 b 713 331 629 92 713 169 l 713 993 l 838 993 l 838 331 "},"Ú":{"ha":914,"x_min":0,"x_max":0,"o":"m 601 1292 l 500 1115 l 410 1115 l 469 1292 m 838 331 b 457 -19 838 128 722 -19 b 76 331 192 -19 76 128 l 76 993 l 201 993 l 201 331 b 457 92 201 169 285 92 b 713 331 629 92 713 169 l 713 993 l 838 993 l 838 331 "},"Û":{"ha":914,"x_min":0,"x_max":0,"o":"m 394 1292 l 519 1292 l 647 1115 l 536 1115 l 458 1232 l 456 1232 l 378 1115 l 267 1115 m 838 331 b 457 -19 838 128 722 -19 b 76 331 192 -19 76 128 l 76 993 l 201 993 l 201 331 b 457 92 201 169 285 92 b 713 331 629 92 713 169 l 713 993 l 838 993 l 838 331 "},"Ü":{"ha":914,"x_min":0,"x_max":0,"o":"m 283 1221 b 353 1290 283 1258 308 1290 b 422 1221 397 1290 422 1258 b 353 1153 422 1185 397 1153 b 283 1221 308 1153 283 1185 m 492 1221 b 561 1290 492 1258 517 1290 b 631 1221 606 1290 631 1258 b 561 1153 631 1185 606 1153 b 492 1221 517 1153 492 1185 m 838 331 b 457 -19 838 128 722 -19 b 76 331 192 -19 76 128 l 76 993 l 201 993 l 201 331 b 457 92 201 169 285 92 b 713 331 629 92 713 169 l 713 993 l 838 993 l 838 331 "},"Ù":{"ha":914,"x_min":0,"x_max":0,"o":"m 504 1115 l 414 1115 l 313 1292 l 444 1292 m 838 331 b 457 -19 838 128 722 -19 b 76 331 192 -19 76 128 l 76 993 l 201 993 l 201 331 b 457 92 201 169 285 92 b 713 331 629 92 713 169 l 713 993 l 838 993 l 838 331 "},"Ű":{"ha":914,"x_min":0,"x_max":0,"o":"m 496 1292 l 394 1115 l 304 1115 l 364 1292 m 693 1292 l 592 1115 l 501 1115 l 561 1292 m 838 331 b 457 -19 838 128 722 -19 b 76 331 192 -19 76 128 l 76 993 l 201 993 l 201 331 b 457 92 201 169 285 92 b 713 331 629 92 713 169 l 713 993 l 838 993 l 838 331 "},"Ū":{"ha":914,"x_min":0,"x_max":0,"o":"m 636 1257 l 636 1160 l 278 1160 l 278 1257 m 838 331 b 457 -19 838 128 722 -19 b 76 331 192 -19 76 128 l 76 993 l 201 993 l 201 331 b 457 92 201 169 285 92 b 713 331 629 92 713 169 l 713 993 l 838 993 l 838 331 "},"Ų":{"ha":914,"x_min":0,"x_max":0,"o":"m 838 993 l 838 331 b 607 0 838 171 767 46 l 608 0 b 517 -119 549 -47 517 -89 b 568 -162 517 -147 540 -162 b 636 -149 596 -162 617 -157 l 636 -232 b 546 -246 610 -240 576 -246 b 419 -143 463 -246 419 -204 b 492 -18 419 -92 453 -46 b 457 -19 481 -19 469 -19 b 76 331 192 -19 76 128 l 76 993 l 201 993 l 201 331 b 457 92 201 169 285 92 b 713 331 629 92 713 169 l 713 993 "},"Ů":{"ha":914,"x_min":0,"x_max":0,"o":"m 456 1094 b 335 1215 390 1094 335 1143 b 456 1338 335 1286 390 1338 b 578 1215 522 1338 578 1286 b 456 1094 578 1143 522 1094 m 456 1150 b 521 1215 489 1150 521 1175 b 456 1282 521 1256 489 1282 b 392 1215 422 1282 392 1256 b 456 1150 392 1175 422 1150 m 838 331 b 457 -19 838 128 722 -19 b 76 331 192 -19 76 128 l 76 993 l 201 993 l 201 331 b 457 92 201 169 285 92 b 713 331 629 92 713 169 l 713 993 l 838 993 l 838 331 "},"V":{"ha":860,"x_min":0,"x_max":0,"o":"m 146 993 l 429 125 l 431 125 l 714 993 l 846 993 l 499 0 l 361 0 l 14 993 "},"W":{"ha":1269,"x_min":0,"x_max":0,"o":"m 151 993 l 340 179 l 343 179 l 565 993 l 704 993 l 926 179 l 929 179 l 1118 993 l 1250 993 l 1004 0 l 865 0 l 636 851 l 633 851 l 404 0 l 265 0 l 19 993 "},"Ẃ":{"ha":1269,"x_min":0,"x_max":0,"o":"m 779 1292 l 678 1115 l 588 1115 l 647 1292 m 151 993 l 340 179 l 343 179 l 565 993 l 704 993 l 926 179 l 929 179 l 1118 993 l 1250 993 l 1004 0 l 865 0 l 636 851 l 633 851 l 404 0 l 265 0 l 19 993 "},"Ŵ":{"ha":1269,"x_min":0,"x_max":0,"o":"m 572 1292 l 697 1292 l 825 1115 l 714 1115 l 636 1232 l 633 1232 l 556 1115 l 444 1115 m 151 993 l 340 179 l 343 179 l 565 993 l 704 993 l 926 179 l 929 179 l 1118 993 l 1250 993 l 1004 0 l 865 0 l 636 851 l 633 851 l 404 0 l 265 0 l 19 993 "},"Ẅ":{"ha":1269,"x_min":0,"x_max":0,"o":"m 461 1221 b 531 1290 461 1258 486 1290 b 600 1221 575 1290 600 1258 b 531 1153 600 1185 575 1153 b 461 1221 486 1153 461 1185 m 669 1221 b 739 1290 669 1258 694 1290 b 808 1221 783 1290 808 1258 b 739 1153 808 1185 783 1153 b 669 1221 694 1153 669 1185 m 151 993 l 340 179 l 343 179 l 565 993 l 704 993 l 926 179 l 929 179 l 1118 993 l 1250 993 l 1004 0 l 865 0 l 636 851 l 633 851 l 404 0 l 265 0 l 19 993 "},"Ẁ":{"ha":1269,"x_min":0,"x_max":0,"o":"m 682 1115 l 592 1115 l 490 1292 l 622 1292 m 151 993 l 340 179 l 343 179 l 565 993 l 704 993 l 926 179 l 929 179 l 1118 993 l 1250 993 l 1004 0 l 865 0 l 636 851 l 633 851 l 404 0 l 265 0 l 19 993 "},"X":{"ha":856,"x_min":0,"x_max":0,"o":"m 43 993 l 182 993 l 426 596 l 428 596 l 674 993 l 813 993 l 497 510 l 836 0 l 683 0 l 428 418 l 426 418 l 172 0 l 19 0 l 358 507 "},"Y":{"ha":876,"x_min":0,"x_max":0,"o":"m 149 993 l 436 507 l 439 507 l 728 993 l 863 993 l 500 407 l 500 0 l 375 0 l 375 407 l 14 993 "},"Ý":{"ha":876,"x_min":0,"x_max":0,"o":"m 583 1292 l 482 1115 l 392 1115 l 451 1292 m 149 993 l 436 507 l 439 507 l 728 993 l 863 993 l 500 407 l 500 0 l 375 0 l 375 407 l 14 993 "},"Ŷ":{"ha":876,"x_min":0,"x_max":0,"o":"m 376 1292 l 501 1292 l 629 1115 l 518 1115 l 440 1232 l 438 1232 l 360 1115 l 249 1115 m 149 993 l 436 507 l 439 507 l 728 993 l 863 993 l 500 407 l 500 0 l 375 0 l 375 407 l 14 993 "},"Ÿ":{"ha":876,"x_min":0,"x_max":0,"o":"m 265 1221 b 335 1290 265 1258 290 1290 b 404 1221 379 1290 404 1258 b 335 1153 404 1185 379 1153 b 265 1221 290 1153 265 1185 m 474 1221 b 543 1290 474 1258 499 1290 b 613 1221 588 1290 613 1258 b 543 1153 613 1185 588 1153 b 474 1221 499 1153 474 1185 m 149 993 l 436 507 l 439 507 l 728 993 l 863 993 l 500 407 l 500 0 l 375 0 l 375 407 l 14 993 "},"Ỳ":{"ha":876,"x_min":0,"x_max":0,"o":"m 486 1115 l 396 1115 l 294 1292 l 426 1292 m 149 993 l 436 507 l 439 507 l 728 993 l 863 993 l 500 407 l 500 0 l 375 0 l 375 407 l 14 993 "},"Z":{"ha":864,"x_min":0,"x_max":0,"o":"m 800 993 l 800 882 l 194 114 l 194 111 l 814 111 l 814 0 l 42 0 l 42 111 l 647 879 l 647 882 l 69 882 l 69 993 "},"Ź":{"ha":864,"x_min":0,"x_max":0,"o":"m 572 1292 l 471 1115 l 381 1115 l 440 1292 m 800 993 l 800 882 l 194 114 l 194 111 l 814 111 l 814 0 l 42 0 l 42 111 l 647 879 l 647 882 l 69 882 l 69 993 "},"Ž":{"ha":864,"x_min":0,"x_max":0,"o":"m 349 1292 l 426 1175 l 429 1175 l 507 1292 l 618 1292 l 490 1115 l 365 1115 l 238 1292 m 800 993 l 800 882 l 194 114 l 194 111 l 814 111 l 814 0 l 42 0 l 42 111 l 647 879 l 647 882 l 69 882 l 69 993 "},"Ż":{"ha":864,"x_min":0,"x_max":0,"o":"m 358 1221 b 428 1290 358 1258 383 1290 b 497 1221 472 1290 497 1258 b 428 1153 497 1185 472 1153 b 358 1221 383 1153 358 1185 m 800 993 l 800 882 l 194 114 l 194 111 l 814 111 l 814 0 l 42 0 l 42 111 l 647 879 l 647 882 l 69 882 l 69 993 "},"a":{"ha":708,"x_min":0,"x_max":0,"o":"m 510 528 b 365 631 510 583 479 631 b 179 489 231 631 186 592 l 68 489 b 365 728 75 625 160 728 b 621 504 500 728 621 675 l 621 160 b 701 82 621 104 631 74 l 701 4 b 636 -7 672 -6 657 -7 b 510 89 569 -7 529 11 l 507 89 b 267 -19 463 22 383 -19 b 33 182 124 -19 33 63 b 336 419 33 343 153 385 b 510 528 456 442 510 457 m 278 78 b 510 274 410 78 510 138 l 510 392 b 346 336 489 371 421 351 b 144 188 208 307 144 272 b 278 78 144 118 186 78 "},"á":{"ha":708,"x_min":0,"x_max":0,"o":"m 510 1007 l 408 831 l 318 831 l 378 1007 m 510 528 b 365 631 510 583 479 631 b 179 489 231 631 186 592 l 68 489 b 365 728 75 625 160 728 b 621 504 500 728 621 675 l 621 160 b 701 82 621 104 631 74 l 701 4 b 636 -7 672 -6 657 -7 b 510 89 569 -7 529 11 l 507 89 b 267 -19 463 22 383 -19 b 33 182 124 -19 33 63 b 336 419 33 343 153 385 b 510 528 456 442 510 457 m 278 78 b 510 274 410 78 510 138 l 510 392 b 346 336 489 371 421 351 b 144 188 208 307 144 272 b 278 78 144 118 186 78 "},"ă":{"ha":708,"x_min":0,"x_max":0,"o":"m 365 825 b 189 1007 267 825 193 883 l 272 1007 b 365 908 276 939 306 908 b 458 1007 425 908 454 939 l 542 1007 b 365 825 536 888 467 825 m 510 528 b 365 631 510 583 479 631 b 179 489 231 631 186 592 l 68 489 b 365 728 75 625 160 728 b 621 504 500 728 621 675 l 621 160 b 701 82 621 104 631 74 l 701 4 b 636 -7 672 -6 657 -7 b 510 89 569 -7 529 11 l 507 89 b 267 -19 463 22 383 -19 b 33 182 124 -19 33 63 b 336 419 33 343 153 385 b 510 528 456 442 510 457 m 278 78 b 510 274 410 78 510 138 l 510 392 b 346 336 489 371 421 351 b 144 188 208 307 144 272 b 278 78 144 118 186 78 "},"â":{"ha":708,"x_min":0,"x_max":0,"o":"m 303 1007 l 428 1007 l 556 831 l 444 831 l 367 947 l 364 947 l 286 831 l 175 831 m 510 528 b 365 631 510 583 479 631 b 179 489 231 631 186 592 l 68 489 b 365 728 75 625 160 728 b 621 504 500 728 621 675 l 621 160 b 701 82 621 104 631 74 l 701 4 b 636 -7 672 -6 657 -7 b 510 89 569 -7 529 11 l 507 89 b 267 -19 463 22 383 -19 b 33 182 124 -19 33 63 b 336 419 33 343 153 385 b 510 528 456 442 510 457 m 278 78 b 510 274 410 78 510 138 l 510 392 b 346 336 489 371 421 351 b 144 188 208 307 144 272 b 278 78 144 118 186 78 "},"ä":{"ha":708,"x_min":0,"x_max":0,"o":"m 192 936 b 261 1006 192 974 217 1006 b 331 936 306 1006 331 974 b 261 868 331 900 306 868 b 192 936 217 868 192 900 m 400 936 b 469 1006 400 974 425 1006 b 539 936 514 1006 539 974 b 469 868 539 900 514 868 b 400 936 425 868 400 900 m 510 528 b 365 631 510 583 479 631 b 179 489 231 631 186 592 l 68 489 b 365 728 75 625 160 728 b 621 504 500 728 621 675 l 621 160 b 701 82 621 104 631 74 l 701 4 b 636 -7 672 -6 657 -7 b 510 89 569 -7 529 11 l 507 89 b 267 -19 463 22 383 -19 b 33 182 124 -19 33 63 b 336 419 33 343 153 385 b 510 528 456 442 510 457 m 278 78 b 510 274 410 78 510 138 l 510 392 b 346 336 489 371 421 351 b 144 188 208 307 144 272 b 278 78 144 118 186 78 "},"à":{"ha":708,"x_min":0,"x_max":0,"o":"m 413 831 l 322 831 l 221 1007 l 353 1007 m 510 528 b 365 631 510 583 479 631 b 179 489 231 631 186 592 l 68 489 b 365 728 75 625 160 728 b 621 504 500 728 621 675 l 621 160 b 701 82 621 104 631 74 l 701 4 b 636 -7 672 -6 657 -7 b 510 89 569 -7 529 11 l 507 89 b 267 -19 463 22 383 -19 b 33 182 124 -19 33 63 b 336 419 33 343 153 385 b 510 528 456 442 510 457 m 278 78 b 510 274 410 78 510 138 l 510 392 b 346 336 489 371 421 351 b 144 188 208 307 144 272 b 278 78 144 118 186 78 "},"ā":{"ha":708,"x_min":0,"x_max":0,"o":"m 544 972 l 544 875 l 186 875 l 186 972 m 510 528 b 365 631 510 583 479 631 b 179 489 231 631 186 592 l 68 489 b 365 728 75 625 160 728 b 621 504 500 728 621 675 l 621 160 b 701 82 621 104 631 74 l 701 4 b 636 -7 672 -6 657 -7 b 510 89 569 -7 529 11 l 507 89 b 267 -19 463 22 383 -19 b 33 182 124 -19 33 63 b 336 419 33 343 153 385 b 510 528 456 442 510 457 m 278 78 b 510 274 410 78 510 138 l 510 392 b 346 336 489 371 421 351 b 144 188 208 307 144 272 b 278 78 144 118 186 78 "},"ą":{"ha":708,"x_min":0,"x_max":0,"o":"m 647 -162 b 715 -149 675 -162 696 -157 l 715 -232 b 625 -246 689 -240 656 -246 b 499 -143 542 -246 499 -204 b 596 -4 499 -82 549 -28 b 510 89 553 4 525 28 l 507 89 b 267 -19 463 22 383 -19 b 33 182 124 -19 33 63 b 336 419 33 343 153 385 b 510 528 456 442 510 457 b 365 631 510 583 479 631 b 179 489 231 631 186 592 l 68 489 b 365 728 75 625 160 728 b 621 504 500 728 621 675 l 621 160 b 701 82 621 104 631 74 l 701 4 l 688 0 b 596 -119 628 -47 596 -89 b 647 -162 596 -147 619 -162 m 510 392 b 346 336 489 371 421 351 b 144 188 208 307 144 272 b 278 78 144 118 186 78 b 510 274 410 78 510 138 "},"å":{"ha":708,"x_min":0,"x_max":0,"o":"m 364 810 b 243 931 299 810 243 858 b 364 1053 243 1001 299 1053 b 486 931 431 1053 486 1001 b 364 810 486 858 431 810 m 364 865 b 429 931 397 865 429 890 b 364 997 429 971 397 997 b 300 931 331 997 300 971 b 364 865 300 890 331 865 m 510 528 b 365 631 510 583 479 631 b 179 489 231 631 186 592 l 68 489 b 365 728 75 625 160 728 b 621 504 500 728 621 675 l 621 160 b 701 82 621 104 631 74 l 701 4 b 636 -7 672 -6 657 -7 b 510 89 569 -7 529 11 l 507 89 b 267 -19 463 22 383 -19 b 33 182 124 -19 33 63 b 336 419 33 343 153 385 b 510 528 456 442 510 457 m 278 78 b 510 274 410 78 510 138 l 510 392 b 346 336 489 371 421 351 b 144 188 208 307 144 272 b 278 78 144 118 186 78 "},"ã":{"ha":708,"x_min":0,"x_max":0,"o":"m 171 865 b 274 996 171 958 222 996 b 443 946 342 996 406 946 b 475 993 472 946 475 974 l 558 993 b 456 863 558 897 507 863 b 286 913 388 863 324 913 b 254 865 257 913 254 882 l 171 865 m 510 528 b 365 631 510 583 479 631 b 179 489 231 631 186 592 l 68 489 b 365 728 75 625 160 728 b 621 504 500 728 621 675 l 621 160 b 701 82 621 104 631 74 l 701 4 b 636 -7 672 -6 657 -7 b 510 89 569 -7 529 11 l 507 89 b 267 -19 463 22 383 -19 b 33 182 124 -19 33 63 b 336 419 33 343 153 385 b 510 528 456 442 510 457 m 278 78 b 510 274 410 78 510 138 l 510 392 b 346 336 489 371 421 351 b 144 188 208 307 144 272 b 278 78 144 118 186 78 "},"æ":{"ha":1214,"x_min":0,"x_max":0,"o":"m 851 78 b 1058 218 993 78 1046 169 l 1169 218 b 856 -19 1133 86 1032 -19 b 572 121 729 -19 632 33 b 267 -19 507 21 383 -19 b 33 182 124 -19 33 63 b 336 419 33 343 153 385 b 510 528 456 442 510 457 b 365 631 510 583 479 631 b 179 489 231 631 186 592 l 68 489 b 365 728 75 625 160 728 b 594 621 463 728 553 700 b 850 728 654 690 742 728 b 1181 325 1072 728 1181 576 l 621 325 b 851 78 621 197 697 78 m 850 631 b 621 422 717 631 621 536 l 1069 422 b 850 631 1069 536 983 631 m 510 392 b 346 336 489 371 421 351 b 144 188 208 307 144 272 b 278 78 144 118 186 78 b 510 274 438 78 510 172 "},"b":{"ha":768,"x_min":0,"x_max":0,"o":"m 413 728 b 732 354 590 728 732 588 b 413 -19 732 121 590 -19 b 190 88 299 -19 232 33 l 188 88 l 188 0 l 76 0 l 76 993 l 188 993 l 188 617 l 190 617 b 413 728 232 678 299 728 m 401 78 b 621 354 547 78 621 215 b 401 631 621 493 547 631 b 188 354 269 631 188 521 b 401 78 188 188 269 78 "},"c":{"ha":721,"x_min":0,"x_max":0,"o":"m 579 453 b 379 631 574 531 521 631 b 147 354 211 631 147 488 b 379 78 147 221 211 78 b 579 261 522 78 574 176 l 690 261 b 379 -19 681 100 554 -19 b 36 354 172 -19 36 132 b 379 728 36 576 172 728 b 690 453 554 728 674 611 l 579 453 "},"ć":{"ha":721,"x_min":0,"x_max":0,"o":"m 508 1007 l 407 831 l 317 831 l 376 1007 m 579 453 b 379 631 574 531 521 631 b 147 354 211 631 147 488 b 379 78 147 221 211 78 b 579 261 522 78 574 176 l 690 261 b 379 -19 681 100 554 -19 b 36 354 172 -19 36 132 b 379 728 36 576 172 728 b 690 453 554 728 674 611 l 579 453 "},"č":{"ha":721,"x_min":0,"x_max":0,"o":"m 285 1007 l 363 890 l 365 890 l 443 1007 l 554 1007 l 426 831 l 301 831 l 174 1007 m 579 453 b 379 631 574 531 521 631 b 147 354 211 631 147 488 b 379 78 147 221 211 78 b 579 261 522 78 574 176 l 690 261 b 379 -19 681 100 554 -19 b 36 354 172 -19 36 132 b 379 728 36 576 172 728 b 690 453 554 728 674 611 l 579 453 "},"ç":{"ha":721,"x_min":0,"x_max":0,"o":"m 379 78 b 579 261 522 78 574 176 l 690 261 b 394 -19 681 104 561 -12 l 343 -82 l 343 -85 b 478 -168 397 -76 478 -96 b 333 -272 478 -235 406 -272 b 185 -232 276 -272 218 -256 l 214 -197 b 318 -218 247 -210 275 -218 b 394 -167 364 -218 394 -196 b 325 -129 394 -140 374 -129 b 269 -139 310 -129 282 -133 l 253 -112 l 326 -17 b 36 354 150 7 36 151 b 379 728 36 576 172 728 b 690 453 554 728 674 611 l 579 453 b 379 631 574 531 521 631 b 147 354 211 631 147 488 b 379 78 147 221 211 78 "},"ċ":{"ha":721,"x_min":0,"x_max":0,"o":"m 294 936 b 364 1006 294 974 319 1006 b 433 936 408 1006 433 974 b 364 868 433 900 408 868 b 294 936 319 868 294 900 m 579 453 b 379 631 574 531 521 631 b 147 354 211 631 147 488 b 379 78 147 221 211 78 b 579 261 522 78 574 176 l 690 261 b 379 -19 681 100 554 -19 b 36 354 172 -19 36 132 b 379 728 36 576 172 728 b 690 453 554 728 674 611 l 579 453 "},"d":{"ha":768,"x_min":0,"x_max":0,"o":"m 692 993 l 692 0 l 581 0 l 581 88 l 578 88 b 356 -19 536 33 469 -19 b 36 354 178 -19 36 121 b 356 728 36 588 178 728 b 578 617 469 728 536 678 l 581 617 l 581 993 m 367 78 b 581 354 499 78 581 188 b 367 631 581 521 499 631 b 147 354 221 631 147 493 b 367 78 147 215 221 78 "},"ð":{"ha":765,"x_min":0,"x_max":0,"o":"m 550 863 b 729 411 642 763 729 614 b 376 -22 729 203 635 -22 b 36 357 158 -22 36 129 b 376 733 36 594 192 733 b 597 604 465 733 550 681 l 597 607 b 444 833 569 690 511 768 l 224 775 l 206 842 l 382 889 b 236 993 333 931 282 965 l 388 993 b 492 918 415 978 453 953 l 674 967 l 693 900 l 550 863 m 376 75 b 618 357 528 75 618 210 b 376 636 618 504 528 636 b 147 357 224 636 147 504 b 376 75 147 210 224 75 "},"ď":{"ha":815,"x_min":0,"x_max":0,"o":"m 844 1000 b 931 883 901 1000 931 951 b 775 714 931 819 889 726 l 775 764 b 867 844 815 771 867 807 b 764 921 806 831 764 867 b 844 1000 764 967 792 1000 m 581 993 l 692 993 l 692 0 l 581 0 l 581 88 l 578 88 b 356 -19 536 33 469 -19 b 36 354 178 -19 36 121 b 356 728 36 588 178 728 b 578 617 469 728 536 678 l 581 617 m 367 78 b 581 354 499 78 581 188 b 367 631 581 521 499 631 b 147 354 221 631 147 493 b 367 78 147 215 221 78 "},"đ":{"ha":776,"x_min":0,"x_max":0,"o":"m 788 813 l 692 813 l 692 0 l 581 0 l 581 88 l 578 88 b 356 -19 536 33 469 -19 b 36 354 178 -19 36 121 b 356 728 36 588 178 728 b 578 617 469 728 536 678 l 581 617 l 581 813 l 374 813 l 374 910 l 581 910 l 581 993 l 692 993 l 692 910 l 788 910 m 367 78 b 581 354 499 78 581 188 b 367 631 581 521 499 631 b 147 354 221 631 147 493 b 367 78 147 215 221 78 "},"e":{"ha":740,"x_min":0,"x_max":0,"o":"m 378 78 b 585 218 519 78 572 169 l 696 218 b 382 -19 660 86 558 -19 b 36 354 167 -19 36 132 b 376 728 36 590 169 728 b 707 325 599 728 707 576 l 147 325 b 378 78 147 197 224 78 m 376 631 b 147 422 243 631 147 536 l 596 422 b 376 631 596 536 510 631 "},"é":{"ha":740,"x_min":0,"x_max":0,"o":"m 415 831 l 325 831 l 385 1007 l 517 1007 m 378 78 b 585 218 519 78 572 169 l 696 218 b 382 -19 660 86 558 -19 b 36 354 167 -19 36 132 b 376 728 36 590 169 728 b 707 325 599 728 707 576 l 147 325 b 378 78 147 197 224 78 m 376 631 b 147 422 243 631 147 536 l 596 422 b 376 631 596 536 510 631 "},"ě":{"ha":740,"x_min":0,"x_max":0,"o":"m 310 831 l 182 1007 l 293 1007 l 371 890 l 374 890 l 451 1007 l 563 1007 l 435 831 m 378 78 b 585 218 519 78 572 169 l 696 218 b 382 -19 660 86 558 -19 b 36 354 167 -19 36 132 b 376 728 36 590 169 728 b 707 325 599 728 707 576 l 147 325 b 378 78 147 197 224 78 m 376 631 b 147 422 243 631 147 536 l 596 422 b 376 631 596 536 510 631 "},"ê":{"ha":740,"x_min":0,"x_max":0,"o":"m 293 831 l 182 831 l 310 1007 l 435 1007 l 563 831 l 451 831 l 374 947 l 371 947 m 378 78 b 585 218 519 78 572 169 l 696 218 b 382 -19 660 86 558 -19 b 36 354 167 -19 36 132 b 376 728 36 590 169 728 b 707 325 599 728 707 576 l 147 325 b 378 78 147 197 224 78 m 376 631 b 147 422 243 631 147 536 l 596 422 b 376 631 596 536 510 631 "},"ë":{"ha":740,"x_min":0,"x_max":0,"o":"m 268 868 b 199 936 224 868 199 900 b 268 1006 199 974 224 1006 b 338 936 313 1006 338 974 b 268 868 338 900 313 868 m 476 868 b 407 936 432 868 407 900 b 476 1006 407 974 432 1006 b 546 936 521 1006 546 974 b 476 868 546 900 521 868 m 378 78 b 585 218 519 78 572 169 l 696 218 b 382 -19 660 86 558 -19 b 36 354 167 -19 36 132 b 376 728 36 590 169 728 b 707 325 599 728 707 576 l 147 325 b 378 78 147 197 224 78 m 376 631 b 147 422 243 631 147 536 l 596 422 b 376 631 596 536 510 631 "},"ė":{"ha":740,"x_min":0,"x_max":0,"o":"m 372 868 b 303 936 328 868 303 900 b 372 1006 303 974 328 1006 b 442 936 417 1006 442 974 b 372 868 442 900 417 868 m 378 78 b 585 218 519 78 572 169 l 696 218 b 382 -19 660 86 558 -19 b 36 354 167 -19 36 132 b 376 728 36 590 169 728 b 707 325 599 728 707 576 l 147 325 b 378 78 147 197 224 78 m 376 631 b 147 422 243 631 147 536 l 596 422 b 376 631 596 536 510 631 "},"è":{"ha":740,"x_min":0,"x_max":0,"o":"m 329 831 l 228 1007 l 360 1007 l 419 831 m 378 78 b 585 218 519 78 572 169 l 696 218 b 382 -19 660 86 558 -19 b 36 354 167 -19 36 132 b 376 728 36 590 169 728 b 707 325 599 728 707 576 l 147 325 b 378 78 147 197 224 78 m 376 631 b 147 422 243 631 147 536 l 596 422 b 376 631 596 536 510 631 "},"ē":{"ha":740,"x_min":0,"x_max":0,"o":"m 551 875 l 193 875 l 193 972 l 551 972 m 378 78 b 585 218 519 78 572 169 l 696 218 b 382 -19 660 86 558 -19 b 36 354 167 -19 36 132 b 376 728 36 590 169 728 b 707 325 599 728 707 576 l 147 325 b 378 78 147 197 224 78 m 376 631 b 147 422 243 631 147 536 l 596 422 b 376 631 596 536 510 631 "},"ę":{"ha":740,"x_min":0,"x_max":0,"o":"m 378 78 b 585 218 519 78 572 169 l 696 218 b 500 -1 668 119 606 35 b 410 -119 442 -47 410 -89 b 461 -162 410 -147 433 -162 b 529 -149 489 -162 510 -157 l 529 -232 b 439 -246 503 -240 469 -246 b 313 -143 356 -246 313 -204 b 383 -19 313 -93 346 -47 l 382 -19 b 36 354 167 -19 36 132 b 376 728 36 590 169 728 b 707 325 599 728 707 576 l 147 325 b 378 78 147 197 224 78 m 376 631 b 147 422 243 631 147 536 l 596 422 b 376 631 596 536 510 631 "},"f":{"ha":407,"x_min":0,"x_max":0,"o":"m 375 896 b 240 808 281 903 240 889 l 240 708 l 375 708 l 375 611 l 240 611 l 240 0 l 129 0 l 129 611 l 31 611 l 31 708 l 129 708 l 129 819 b 296 1001 129 964 201 1001 b 375 993 321 1001 350 999 l 375 896 "},"g":{"ha":768,"x_min":0,"x_max":0,"o":"m 692 708 l 692 39 b 378 -246 692 -150 572 -246 b 57 -22 183 -246 68 -143 l 168 -22 b 372 -149 182 -94 240 -149 b 581 40 504 -149 581 -92 l 581 147 l 578 147 b 353 36 536 86 469 36 b 36 382 178 36 36 149 b 353 728 36 615 178 728 b 578 621 469 728 536 675 l 581 621 l 581 708 m 367 133 b 581 382 499 133 581 215 b 367 631 581 549 499 631 b 147 382 221 631 147 521 b 367 133 147 243 221 133 "},"ğ":{"ha":768,"x_min":0,"x_max":0,"o":"m 364 825 b 188 1007 265 825 192 883 l 271 1007 b 364 908 275 939 304 908 b 457 1007 424 908 453 939 l 540 1007 b 364 825 535 888 465 825 m 692 708 l 692 39 b 378 -246 692 -150 572 -246 b 57 -22 183 -246 68 -143 l 168 -22 b 372 -149 182 -94 240 -149 b 581 40 504 -149 581 -92 l 581 147 l 578 147 b 353 36 536 86 469 36 b 36 382 178 36 36 149 b 353 728 36 615 178 728 b 578 621 469 728 536 675 l 581 621 l 581 708 m 367 133 b 581 382 499 133 581 215 b 367 631 581 549 499 631 b 147 382 221 631 147 521 b 367 133 147 243 221 133 "},"ģ":{"ha":768,"x_min":0,"x_max":0,"o":"m 368 793 b 288 911 314 793 288 842 b 426 1090 288 971 318 1071 l 426 1035 b 357 936 383 1025 357 988 b 440 869 400 950 440 931 b 368 793 440 824 407 793 m 692 708 l 692 39 b 378 -246 692 -150 572 -246 b 57 -22 183 -246 68 -143 l 168 -22 b 372 -149 182 -94 240 -149 b 581 40 504 -149 581 -92 l 581 147 l 578 147 b 353 36 536 86 469 36 b 36 382 178 36 36 149 b 353 728 36 615 178 728 b 578 621 469 728 536 675 l 581 621 l 581 708 m 367 133 b 581 382 499 133 581 215 b 367 631 581 549 499 631 b 147 382 221 631 147 521 b 367 133 147 243 221 133 "},"ġ":{"ha":768,"x_min":0,"x_max":0,"o":"m 364 868 b 294 936 319 868 294 900 b 364 1006 294 974 319 1006 b 433 936 408 1006 433 974 b 364 868 433 900 408 868 m 692 708 l 692 39 b 378 -246 692 -150 572 -246 b 57 -22 183 -246 68 -143 l 168 -22 b 372 -149 182 -94 240 -149 b 581 40 504 -149 581 -92 l 581 147 l 578 147 b 353 36 536 86 469 36 b 36 382 178 36 36 149 b 353 728 36 615 178 728 b 578 621 469 728 536 675 l 581 621 l 581 708 m 367 133 b 581 382 499 133 581 215 b 367 631 581 549 499 631 b 147 382 221 631 147 521 b 367 133 147 243 221 133 "},"h":{"ha":733,"x_min":0,"x_max":0,"o":"m 424 728 b 661 494 553 728 661 657 l 661 0 l 550 0 l 550 467 b 396 631 550 558 507 631 b 188 442 271 631 188 551 l 188 0 l 76 0 l 76 993 l 188 993 l 188 624 l 190 624 b 424 728 228 674 303 728 "},"ħ":{"ha":743,"x_min":0,"x_max":0,"o":"m 433 728 b 671 494 563 728 671 657 l 671 0 l 560 0 l 560 467 b 406 631 560 558 517 631 b 197 442 281 631 197 551 l 197 0 l 86 0 l 86 813 l -11 813 l -11 910 l 86 910 l 86 993 l 197 993 l 197 910 l 403 910 l 403 813 l 197 813 l 197 624 l 200 624 b 433 728 238 674 313 728 "},"i":{"ha":292,"x_min":0,"x_max":0,"o":"m 146 846 b 76 913 115 846 76 869 b 146 979 76 956 115 979 b 215 913 178 979 215 956 b 146 846 215 869 178 846 m 201 708 l 201 0 l 90 0 l 90 708 "},"ı":{"ha":194,"x_min":0,"x_max":0,"o":"m 153 708 l 153 0 l 42 0 l 42 708 "},"í":{"ha":194,"x_min":0,"x_max":0,"o":"m 242 1007 l 140 831 l 50 831 l 110 1007 m 153 708 l 153 0 l 42 0 l 42 708 "},"î":{"ha":194,"x_min":0,"x_max":0,"o":"m 35 1007 l 160 1007 l 288 831 l 176 831 l 99 947 l 96 947 l 18 831 l -93 831 m 153 708 l 153 0 l 42 0 l 42 708 "},"ï":{"ha":194,"x_min":0,"x_max":0,"o":"m -76 936 b -7 1006 -76 974 -51 1006 b 63 936 38 1006 63 974 b -7 868 63 900 38 868 b -76 936 -51 868 -76 900 m 132 936 b 201 1006 132 974 157 1006 b 271 936 246 1006 271 974 b 201 868 271 900 246 868 b 132 936 157 868 132 900 m 153 708 l 153 0 l 42 0 l 42 708 "},"ì":{"ha":194,"x_min":0,"x_max":0,"o":"m 144 831 l 54 831 l -47 1007 l 85 1007 m 153 708 l 153 0 l 42 0 l 42 708 "},"ī":{"ha":194,"x_min":0,"x_max":0,"o":"m 276 972 l 276 875 l -82 875 l -82 972 m 153 708 l 153 0 l 42 0 l 42 708 "},"į":{"ha":194,"x_min":0,"x_max":0,"o":"m 97 868 b 28 936 53 868 28 900 b 97 1006 28 974 53 1006 b 167 936 142 1006 167 974 b 97 868 167 900 142 868 m 113 -162 b 181 -149 140 -162 161 -157 l 181 -232 b 90 -246 154 -240 121 -246 b -36 -143 7 -246 -36 -204 b 69 0 -36 -78 19 -21 l 42 0 l 42 708 l 153 708 l 153 0 b 61 -119 93 -47 61 -89 b 113 -162 61 -147 85 -162 "},"j":{"ha":279,"x_min":0,"x_max":0,"o":"m 133 846 b 64 913 103 846 64 869 b 133 979 64 956 103 979 b 203 913 165 979 203 956 b 133 846 203 869 165 846 m 189 708 l 189 -49 b 64 -239 189 -167 158 -239 b -39 -224 29 -239 1 -235 l -39 -140 b 78 -60 56 -147 78 -140 l 78 708 "},"k":{"ha":679,"x_min":0,"x_max":0,"o":"m 188 993 l 188 404 l 513 708 l 651 708 l 375 446 l 681 0 l 549 0 l 297 381 l 188 279 l 188 0 l 76 0 l 76 993 "},"ķ":{"ha":679,"x_min":0,"x_max":0,"o":"m 188 993 l 188 404 l 513 708 l 651 708 l 375 446 l 681 0 l 549 0 l 297 381 l 188 279 l 188 0 l 76 0 l 76 993 m 386 -225 b 303 -158 343 -239 303 -219 b 375 -82 303 -112 336 -82 b 456 -200 429 -82 456 -131 b 317 -365 456 -260 425 -346 l 317 -310 b 386 -225 360 -300 386 -276 "},"l":{"ha":272,"x_min":0,"x_max":0,"o":"m 192 993 l 192 0 l 81 0 l 81 993 "},"ĺ":{"ha":260,"x_min":0,"x_max":0,"o":"m 288 1246 l 186 1069 l 96 1069 l 156 1246 m 192 993 l 192 0 l 81 0 l 81 993 "},"ľ":{"ha":319,"x_min":0,"x_max":0,"o":"m 367 844 b 264 921 306 831 264 867 b 344 1000 264 967 292 1000 b 431 883 401 1000 431 951 b 275 714 431 819 389 726 l 275 764 b 367 844 315 771 367 807 m 192 993 l 192 0 l 81 0 l 81 993 "},"ļ":{"ha":272,"x_min":0,"x_max":0,"o":"m 192 993 l 192 0 l 81 0 l 81 993 m 143 -225 b 60 -158 100 -239 60 -219 b 132 -82 60 -112 93 -82 b 213 -200 186 -82 213 -131 b 74 -365 213 -260 182 -346 l 74 -310 b 143 -225 117 -300 143 -276 "},"ł":{"ha":315,"x_min":0,"x_max":0,"o":"m 324 590 l 221 517 l 221 0 l 110 0 l 110 436 l 7 363 l 7 469 l 110 543 l 110 993 l 221 993 l 221 624 l 324 697 "},"m":{"ha":1101,"x_min":0,"x_max":0,"o":"m 817 728 b 1029 494 960 728 1029 643 l 1029 0 l 918 0 l 918 467 b 789 631 918 558 900 631 b 608 442 678 631 608 551 l 608 0 l 497 0 l 497 467 b 368 631 497 558 479 631 b 188 442 257 631 188 551 l 188 0 l 76 0 l 76 708 l 188 708 l 188 624 l 190 624 b 396 728 228 674 289 728 b 585 606 497 728 556 685 l 588 606 b 817 728 636 672 710 728 "},"n":{"ha":733,"x_min":0,"x_max":0,"o":"m 424 728 b 661 494 553 728 661 657 l 661 0 l 550 0 l 550 467 b 396 631 550 558 507 631 b 188 442 271 631 188 551 l 188 0 l 76 0 l 76 708 l 188 708 l 188 624 l 190 624 b 424 728 228 674 303 728 "},"ń":{"ha":733,"x_min":0,"x_max":0,"o":"m 413 831 l 322 831 l 382 1007 l 514 1007 m 424 728 b 661 494 553 728 661 657 l 661 0 l 550 0 l 550 467 b 396 631 550 558 507 631 b 188 442 271 631 188 551 l 188 0 l 76 0 l 76 708 l 188 708 l 188 624 l 190 624 b 424 728 228 674 303 728 "},"ň":{"ha":733,"x_min":0,"x_max":0,"o":"m 307 831 l 179 1007 l 290 1007 l 368 890 l 371 890 l 449 1007 l 560 1007 l 432 831 m 424 728 b 661 494 553 728 661 657 l 661 0 l 550 0 l 550 467 b 396 631 550 558 507 631 b 188 442 271 631 188 551 l 188 0 l 76 0 l 76 708 l 188 708 l 188 624 l 190 624 b 424 728 228 674 303 728 "},"ņ":{"ha":733,"x_min":0,"x_max":0,"o":"m 424 728 b 661 494 553 728 661 657 l 661 0 l 550 0 l 550 467 b 396 631 550 558 507 631 b 188 442 271 631 188 551 l 188 0 l 76 0 l 76 708 l 188 708 l 188 624 l 190 624 b 424 728 228 674 303 728 m 365 -82 b 446 -200 419 -82 446 -131 b 307 -365 446 -260 415 -346 l 307 -310 b 376 -225 350 -300 376 -276 b 293 -158 333 -239 293 -219 b 365 -82 293 -112 326 -82 "},"ŋ":{"ha":733,"x_min":0,"x_max":0,"o":"m 424 728 b 661 494 553 728 661 657 l 661 -49 b 494 -231 661 -193 589 -231 b 411 -222 465 -231 436 -228 l 411 -125 b 550 -37 506 -132 550 -118 l 550 467 b 396 631 550 558 507 631 b 188 442 271 631 188 551 l 188 0 l 76 0 l 76 708 l 188 708 l 188 624 l 190 624 b 424 728 228 674 303 728 "},"ñ":{"ha":733,"x_min":0,"x_max":0,"o":"m 290 913 b 258 865 261 913 258 882 l 175 865 b 278 996 175 958 226 996 b 447 946 346 996 410 946 b 479 993 476 946 479 974 l 563 993 b 460 863 563 897 511 863 b 290 913 392 863 328 913 m 424 728 b 661 494 553 728 661 657 l 661 0 l 550 0 l 550 467 b 396 631 550 558 507 631 b 188 442 271 631 188 551 l 188 0 l 76 0 l 76 708 l 188 708 l 188 624 l 190 624 b 424 728 228 674 303 728 "},"o":{"ha":765,"x_min":0,"x_max":0,"o":"m 383 -19 b 729 354 599 -19 729 133 b 383 728 729 575 599 728 b 36 354 167 728 36 575 b 383 -19 36 133 167 -19 m 383 78 b 147 354 224 78 147 203 b 383 631 147 506 224 631 b 618 354 542 631 618 506 b 383 78 618 203 542 78 "},"ó":{"ha":765,"x_min":0,"x_max":0,"o":"m 528 1007 l 426 831 l 336 831 l 396 1007 m 383 -19 b 729 354 599 -19 729 133 b 383 728 729 575 599 728 b 36 354 167 728 36 575 b 383 -19 36 133 167 -19 m 383 78 b 147 354 224 78 147 203 b 383 631 147 506 224 631 b 618 354 542 631 618 506 b 383 78 618 203 542 78 "},"ô":{"ha":765,"x_min":0,"x_max":0,"o":"m 321 1007 l 446 1007 l 574 831 l 463 831 l 385 947 l 382 947 l 304 831 l 193 831 m 383 -19 b 729 354 599 -19 729 133 b 383 728 729 575 599 728 b 36 354 167 728 36 575 b 383 -19 36 133 167 -19 m 383 78 b 147 354 224 78 147 203 b 383 631 147 506 224 631 b 618 354 542 631 618 506 b 383 78 618 203 542 78 "},"ö":{"ha":765,"x_min":0,"x_max":0,"o":"m 210 936 b 279 1006 210 974 235 1006 b 349 936 324 1006 349 974 b 279 868 349 900 324 868 b 210 936 235 868 210 900 m 418 936 b 488 1006 418 974 443 1006 b 557 936 532 1006 557 974 b 488 868 557 900 532 868 b 418 936 443 868 418 900 m 383 -19 b 729 354 599 -19 729 133 b 383 728 729 575 599 728 b 36 354 167 728 36 575 b 383 -19 36 133 167 -19 m 383 78 b 147 354 224 78 147 203 b 383 631 147 506 224 631 b 618 354 542 631 618 506 b 383 78 618 203 542 78 "},"ò":{"ha":765,"x_min":0,"x_max":0,"o":"m 431 831 l 340 831 l 239 1007 l 371 1007 m 383 -19 b 729 354 599 -19 729 133 b 383 728 729 575 599 728 b 36 354 167 728 36 575 b 383 -19 36 133 167 -19 m 383 78 b 147 354 224 78 147 203 b 383 631 147 506 224 631 b 618 354 542 631 618 506 b 383 78 618 203 542 78 "},"ő":{"ha":765,"x_min":0,"x_max":0,"o":"m 422 1007 l 321 831 l 231 831 l 290 1007 m 619 1007 l 518 831 l 428 831 l 488 1007 m 383 -19 b 729 354 599 -19 729 133 b 383 728 729 575 599 728 b 36 354 167 728 36 575 b 383 -19 36 133 167 -19 m 383 78 b 147 354 224 78 147 203 b 383 631 147 506 224 631 b 618 354 542 631 618 506 b 383 78 618 203 542 78 "},"ō":{"ha":765,"x_min":0,"x_max":0,"o":"m 563 972 l 563 875 l 204 875 l 204 972 m 383 -19 b 729 354 599 -19 729 133 b 383 728 729 575 599 728 b 36 354 167 728 36 575 b 383 -19 36 133 167 -19 m 383 78 b 147 354 224 78 147 203 b 383 631 147 506 224 631 b 618 354 542 631 618 506 b 383 78 618 203 542 78 "},"ø":{"ha":803,"x_min":0,"x_max":0,"o":"m 672 576 b 729 354 710 517 729 440 b 383 -19 729 133 599 -19 b 156 58 290 -19 213 8 l 83 -14 l 36 35 l 110 108 b 36 354 61 172 36 257 b 383 728 36 575 167 728 b 631 631 488 728 571 693 l 721 722 l 769 674 m 147 354 b 188 186 147 292 160 233 l 556 556 b 383 631 517 601 460 631 b 147 354 224 631 147 506 m 618 354 b 592 496 618 406 610 454 l 229 133 b 383 78 268 99 318 78 b 618 354 542 78 618 203 "},"õ":{"ha":765,"x_min":0,"x_max":0,"o":"m 189 865 b 292 996 189 958 240 996 b 461 946 360 996 424 946 b 493 993 490 946 493 974 l 576 993 b 474 863 576 897 525 863 b 304 913 406 863 342 913 b 272 865 275 913 272 882 l 189 865 m 383 -19 b 729 354 599 -19 729 133 b 383 728 729 575 599 728 b 36 354 167 728 36 575 b 383 -19 36 133 167 -19 m 383 78 b 147 354 224 78 147 203 b 383 631 147 506 224 631 b 618 354 542 631 618 506 b 383 78 618 203 542 78 "},"œ":{"ha":1343,"x_min":0,"x_max":0,"o":"m 981 78 b 1188 218 1122 78 1175 169 l 1299 218 b 985 -19 1263 86 1161 -19 b 683 153 844 -19 739 46 b 383 -19 628 46 524 -19 b 36 354 167 -19 36 133 b 383 728 36 575 167 728 b 682 558 522 728 626 664 b 979 728 738 668 842 728 b 1310 325 1201 728 1310 576 l 750 325 b 981 78 750 197 826 78 m 383 78 b 618 354 542 78 618 203 b 383 631 618 506 542 631 b 147 354 224 631 147 506 b 383 78 147 203 224 78 m 979 631 b 750 422 846 631 750 536 l 1199 422 b 979 631 1199 536 1113 631 "},"p":{"ha":772,"x_min":0,"x_max":0,"o":"m 415 728 b 732 354 590 728 732 588 b 415 -19 732 121 590 -19 b 190 92 299 -19 232 31 l 188 92 l 188 -239 l 76 -239 l 76 708 l 188 708 l 188 621 l 190 621 b 415 728 232 675 299 728 m 401 78 b 621 354 547 78 621 215 b 401 631 621 493 547 631 b 188 354 269 631 188 521 b 401 78 188 188 269 78 "},"þ":{"ha":768,"x_min":0,"x_max":0,"o":"m 415 728 b 732 354 590 728 732 588 b 415 -19 732 121 590 -19 b 190 92 299 -19 232 31 l 188 92 l 188 -239 l 76 -239 l 76 993 l 188 993 l 188 621 l 190 621 b 415 728 232 675 299 728 m 401 78 b 621 354 547 78 621 215 b 401 631 621 493 547 631 b 188 354 269 631 188 521 b 401 78 188 188 269 78 "},"q":{"ha":772,"x_min":0,"x_max":0,"o":"m 696 708 l 696 -239 l 585 -239 l 585 92 l 582 92 b 357 -19 540 31 474 -19 b 40 354 182 -19 40 121 b 357 728 40 588 182 728 b 582 621 474 728 540 675 l 585 621 l 585 708 m 371 78 b 585 354 503 78 585 188 b 371 631 585 521 503 631 b 151 354 225 631 151 493 b 371 78 151 215 225 78 "},"r":{"ha":476,"x_min":0,"x_max":0,"o":"m 386 728 b 451 724 413 728 432 726 l 451 613 l 449 613 b 188 378 294 638 188 529 l 188 0 l 76 0 l 76 708 l 188 708 l 188 568 l 190 568 b 386 728 228 661 285 728 "},"ŕ":{"ha":476,"x_min":0,"x_max":0,"o":"m 307 831 l 217 831 l 276 1007 l 408 1007 m 386 728 b 451 724 413 728 432 726 l 451 613 l 449 613 b 188 378 294 638 188 529 l 188 0 l 76 0 l 76 708 l 188 708 l 188 568 l 190 568 b 386 728 228 661 285 728 "},"ř":{"ha":476,"x_min":0,"x_max":0,"o":"m 201 831 l 74 1007 l 185 1007 l 263 890 l 265 890 l 343 1007 l 454 1007 l 326 831 m 190 568 b 386 728 228 661 285 728 b 451 724 413 728 432 726 l 451 613 l 449 613 b 188 378 294 638 188 529 l 188 0 l 76 0 l 76 708 l 188 708 l 188 568 l 190 568 "},"ŗ":{"ha":476,"x_min":0,"x_max":0,"o":"m 386 728 b 451 724 413 728 432 726 l 451 613 l 449 613 b 188 378 294 638 188 529 l 188 0 l 76 0 l 76 708 l 188 708 l 188 568 l 190 568 b 386 728 228 661 285 728 m 131 -82 b 211 -200 185 -82 211 -131 b 72 -365 211 -260 181 -346 l 72 -310 b 142 -225 115 -300 142 -276 b 58 -158 99 -239 58 -219 b 131 -82 58 -112 92 -82 "},"s":{"ha":665,"x_min":0,"x_max":0,"o":"m 364 421 b 633 194 490 390 633 369 b 354 -19 633 65 515 -19 b 31 236 138 -19 38 83 l 142 236 b 354 78 149 157 176 78 b 522 188 475 78 522 140 b 328 321 522 290 429 296 b 58 526 219 347 58 360 b 324 728 58 638 157 728 b 606 506 500 728 594 628 l 494 506 b 324 631 483 560 457 631 b 169 535 224 631 169 590 b 364 421 169 451 265 444 "},"ś":{"ha":665,"x_min":0,"x_max":0,"o":"m 476 1007 l 375 831 l 285 831 l 344 1007 m 364 421 b 633 194 490 390 633 369 b 354 -19 633 65 515 -19 b 31 236 138 -19 38 83 l 142 236 b 354 78 149 157 176 78 b 522 188 475 78 522 140 b 328 321 522 290 429 296 b 58 526 219 347 58 360 b 324 728 58 638 157 728 b 606 506 500 728 594 628 l 494 506 b 324 631 483 560 457 631 b 169 535 224 631 169 590 b 364 421 169 451 265 444 "},"š":{"ha":665,"x_min":0,"x_max":0,"o":"m 253 1007 l 331 890 l 333 890 l 411 1007 l 522 1007 l 394 831 l 269 831 l 142 1007 m 364 421 b 633 194 490 390 633 369 b 354 -19 633 65 515 -19 b 31 236 138 -19 38 83 l 142 236 b 354 78 149 157 176 78 b 522 188 475 78 522 140 b 328 321 522 290 429 296 b 58 526 219 347 58 360 b 324 728 58 638 157 728 b 606 506 500 728 594 628 l 494 506 b 324 631 483 560 457 631 b 169 535 224 631 169 590 b 364 421 169 451 265 444 "},"ş":{"ha":665,"x_min":0,"x_max":0,"o":"m 311 -82 l 311 -85 b 446 -168 365 -76 446 -96 b 301 -272 446 -235 374 -272 b 153 -232 244 -272 186 -256 l 182 -197 b 286 -218 215 -210 243 -218 b 363 -167 332 -218 363 -196 b 293 -129 363 -140 342 -129 b 238 -139 278 -129 250 -133 l 221 -112 l 294 -17 b 31 236 119 1 38 99 l 142 236 b 354 78 149 157 176 78 b 522 188 475 78 522 140 b 328 321 522 290 429 296 b 58 526 219 347 58 360 b 324 728 58 638 157 728 b 606 506 500 728 594 628 l 494 506 b 324 631 483 560 457 631 b 169 535 224 631 169 590 b 364 421 169 451 265 444 b 633 194 490 390 633 369 b 361 -19 633 67 519 -17 "},"ș":{"ha":665,"x_min":0,"x_max":0,"o":"m 364 421 b 633 194 490 390 633 369 b 354 -19 633 65 515 -19 b 31 236 138 -19 38 83 l 142 236 b 354 78 149 157 176 78 b 522 188 475 78 522 140 b 328 321 522 290 429 296 b 58 526 219 347 58 360 b 324 728 58 638 157 728 b 606 506 500 728 594 628 l 494 506 b 324 631 483 560 457 631 b 169 535 224 631 169 590 b 364 421 169 451 265 444 m 339 -225 b 256 -158 296 -239 256 -219 b 328 -82 256 -112 289 -82 b 408 -200 382 -82 408 -131 b 269 -365 408 -260 378 -346 l 269 -310 b 339 -225 313 -300 339 -276 "},"ß":{"ha":708,"x_min":0,"x_max":0,"o":"m 188 0 l 76 0 l 76 728 b 369 1013 76 904 178 1013 b 631 769 503 1013 631 925 b 467 551 631 650 556 590 l 467 549 b 672 269 586 511 672 429 b 415 -19 672 107 565 -19 b 271 0 357 -19 322 -14 l 271 97 b 561 269 451 29 561 132 b 326 501 561 461 415 501 l 285 501 l 285 599 l 322 599 b 519 756 415 599 519 644 b 369 915 519 833 472 915 b 188 700 219 915 188 822 "},"t":{"ha":425,"x_min":0,"x_max":0,"o":"m 246 611 l 246 185 b 385 97 246 104 290 90 l 385 0 b 301 -8 360 -6 331 -8 b 135 174 207 -8 135 29 l 135 611 l 31 611 l 31 708 l 135 708 l 135 944 l 246 944 l 246 708 l 385 708 l 385 611 "},"ŧ":{"ha":425,"x_min":0,"x_max":0,"o":"m 246 611 l 246 482 l 385 482 l 385 385 l 246 385 l 246 185 b 385 97 246 104 290 90 l 385 0 b 301 -8 360 -6 331 -8 b 135 174 207 -8 135 29 l 135 385 l 31 385 l 31 482 l 135 482 l 135 611 l 31 611 l 31 708 l 135 708 l 135 944 l 246 944 l 246 708 l 385 708 l 385 611 "},"ť":{"ha":458,"x_min":0,"x_max":0,"o":"m 397 1069 b 483 953 454 1069 483 1021 b 328 783 483 889 442 796 l 328 833 b 419 914 368 840 419 876 b 317 990 358 900 317 936 b 397 1069 317 1036 344 1069 m 246 708 l 385 708 l 385 611 l 246 611 l 246 185 b 385 97 246 104 290 90 l 385 0 b 301 -8 360 -6 331 -8 b 135 174 207 -8 135 29 l 135 611 l 31 611 l 31 708 l 135 708 l 135 944 l 246 944 "},"ţ":{"ha":425,"x_min":0,"x_max":0,"o":"m 264 -79 b 399 -162 318 -71 399 -90 b 254 -267 399 -229 326 -267 b 106 -226 197 -267 139 -250 l 135 -192 b 239 -212 168 -204 196 -212 b 315 -161 285 -212 315 -190 b 246 -124 315 -135 294 -124 b 190 -133 231 -124 203 -128 l 174 -107 l 253 -4 b 135 174 183 8 135 56 l 135 611 l 31 611 l 31 708 l 135 708 l 135 944 l 246 944 l 246 708 l 385 708 l 385 611 l 246 611 l 246 185 b 385 97 246 104 290 90 l 385 0 b 319 -8 365 -4 342 -7 l 264 -76 l 264 -79 "},"ț":{"ha":425,"x_min":0,"x_max":0,"o":"m 246 611 l 246 185 b 385 97 246 104 290 90 l 385 0 b 301 -8 360 -6 331 -8 b 135 174 207 -8 135 29 l 135 611 l 31 611 l 31 708 l 135 708 l 135 944 l 246 944 l 246 708 l 385 708 l 385 611 m 281 -76 b 361 -194 335 -76 361 -125 b 222 -360 361 -254 331 -340 l 222 -304 b 292 -219 265 -294 292 -271 b 208 -153 249 -233 208 -214 b 281 -76 208 -107 242 -76 "},"u":{"ha":733,"x_min":0,"x_max":0,"o":"m 657 708 l 657 0 l 546 0 l 546 85 l 543 85 b 310 -19 506 35 431 -19 b 72 214 181 -19 72 51 l 72 708 l 183 708 l 183 242 b 338 78 183 150 226 78 b 546 267 463 78 546 157 l 546 708 "},"ú":{"ha":733,"x_min":0,"x_max":0,"o":"m 408 831 l 318 831 l 378 1007 l 510 1007 m 657 708 l 657 0 l 546 0 l 546 85 l 543 85 b 310 -19 506 35 431 -19 b 72 214 181 -19 72 51 l 72 708 l 183 708 l 183 242 b 338 78 183 150 226 78 b 546 267 463 78 546 157 l 546 708 "},"û":{"ha":733,"x_min":0,"x_max":0,"o":"m 286 831 l 175 831 l 303 1007 l 428 1007 l 556 831 l 444 831 l 367 947 l 364 947 m 657 708 l 657 0 l 546 0 l 546 85 l 543 85 b 310 -19 506 35 431 -19 b 72 214 181 -19 72 51 l 72 708 l 183 708 l 183 242 b 338 78 183 150 226 78 b 546 267 463 78 546 157 l 546 708 "},"ü":{"ha":733,"x_min":0,"x_max":0,"o":"m 261 868 b 192 936 217 868 192 900 b 261 1006 192 974 217 1006 b 331 936 306 1006 331 974 b 261 868 331 900 306 868 m 469 868 b 400 936 425 868 400 900 b 469 1006 400 974 425 1006 b 539 936 514 1006 539 974 b 469 868 539 900 514 868 m 657 708 l 657 0 l 546 0 l 546 85 l 543 85 b 310 -19 506 35 431 -19 b 72 214 181 -19 72 51 l 72 708 l 183 708 l 183 242 b 338 78 183 150 226 78 b 546 267 463 78 546 157 l 546 708 "},"ù":{"ha":733,"x_min":0,"x_max":0,"o":"m 322 831 l 221 1007 l 353 1007 l 413 831 m 657 708 l 657 0 l 546 0 l 546 85 l 543 85 b 310 -19 506 35 431 -19 b 72 214 181 -19 72 51 l 72 708 l 183 708 l 183 242 b 338 78 183 150 226 78 b 546 267 463 78 546 157 l 546 708 "},"ű":{"ha":733,"x_min":0,"x_max":0,"o":"m 303 831 l 213 831 l 272 1007 l 404 1007 m 500 831 l 410 831 l 469 1007 l 601 1007 m 657 708 l 657 0 l 546 0 l 546 85 l 543 85 b 310 -19 506 35 431 -19 b 72 214 181 -19 72 51 l 72 708 l 183 708 l 183 242 b 338 78 183 150 226 78 b 546 267 463 78 546 157 l 546 708 "},"ū":{"ha":733,"x_min":0,"x_max":0,"o":"m 544 875 l 186 875 l 186 972 l 544 972 m 657 708 l 657 0 l 546 0 l 546 85 l 543 85 b 310 -19 506 35 431 -19 b 72 214 181 -19 72 51 l 72 708 l 183 708 l 183 242 b 338 78 183 150 226 78 b 546 267 463 78 546 157 l 546 708 "},"ų":{"ha":733,"x_min":0,"x_max":0,"o":"m 617 -162 b 685 -149 644 -162 665 -157 l 685 -232 b 594 -246 658 -240 625 -246 b 468 -143 511 -246 468 -204 b 574 0 468 -78 524 -21 l 546 0 l 546 85 l 543 85 b 310 -19 506 35 431 -19 b 72 214 181 -19 72 51 l 72 708 l 183 708 l 183 242 b 338 78 183 150 226 78 b 546 267 463 78 546 157 l 546 708 l 657 708 l 657 0 b 565 -119 597 -47 565 -89 b 617 -162 565 -147 589 -162 "},"ů":{"ha":733,"x_min":0,"x_max":0,"o":"m 364 810 b 243 931 299 810 243 858 b 364 1053 243 1001 299 1053 b 486 931 431 1053 486 1001 b 364 810 486 858 431 810 m 364 997 b 300 931 331 997 300 971 b 364 865 300 890 331 865 b 429 931 397 865 429 890 b 364 997 429 971 397 997 m 657 708 l 657 0 l 546 0 l 546 85 l 543 85 b 310 -19 506 35 431 -19 b 72 214 181 -19 72 51 l 72 708 l 183 708 l 183 242 b 338 78 183 150 226 78 b 546 267 463 78 546 157 l 546 708 "},"v":{"ha":640,"x_min":0,"x_max":0,"o":"m 124 708 l 319 111 l 321 111 l 517 708 l 638 708 l 383 0 l 257 0 l 3 708 "},"w":{"ha":1019,"x_min":0,"x_max":0,"o":"m 128 708 l 289 121 l 292 121 l 450 708 l 568 708 l 728 121 l 731 121 l 892 708 l 1014 708 l 788 0 l 669 0 l 510 585 l 507 585 l 350 0 l 232 0 l 6 708 "},"ẃ":{"ha":1019,"x_min":0,"x_max":0,"o":"m 654 1007 l 553 831 l 463 831 l 522 1007 m 128 708 l 289 121 l 292 121 l 450 708 l 568 708 l 728 121 l 731 121 l 892 708 l 1014 708 l 788 0 l 669 0 l 510 585 l 507 585 l 350 0 l 232 0 l 6 708 "},"ŵ":{"ha":1019,"x_min":0,"x_max":0,"o":"m 447 1007 l 572 1007 l 700 831 l 589 831 l 511 947 l 508 947 l 431 831 l 319 831 m 128 708 l 289 121 l 292 121 l 450 708 l 568 708 l 728 121 l 731 121 l 892 708 l 1014 708 l 788 0 l 669 0 l 510 585 l 507 585 l 350 0 l 232 0 l 6 708 "},"ẅ":{"ha":1019,"x_min":0,"x_max":0,"o":"m 336 936 b 406 1006 336 974 361 1006 b 475 936 450 1006 475 974 b 406 868 475 900 450 868 b 336 936 361 868 336 900 m 544 936 b 614 1006 544 974 569 1006 b 683 936 658 1006 683 974 b 614 868 683 900 658 868 b 544 936 569 868 544 900 m 128 708 l 289 121 l 292 121 l 450 708 l 568 708 l 728 121 l 731 121 l 892 708 l 1014 708 l 788 0 l 669 0 l 510 585 l 507 585 l 350 0 l 232 0 l 6 708 "},"ẁ":{"ha":1019,"x_min":0,"x_max":0,"o":"m 557 831 l 467 831 l 365 1007 l 497 1007 m 128 708 l 289 121 l 292 121 l 450 708 l 568 708 l 728 121 l 731 121 l 892 708 l 1014 708 l 788 0 l 669 0 l 510 585 l 507 585 l 350 0 l 232 0 l 6 708 "},"x":{"ha":699,"x_min":0,"x_max":0,"o":"m 164 708 l 347 438 l 350 438 l 533 708 l 665 708 l 415 363 l 690 0 l 558 0 l 350 289 l 347 289 l 140 0 l 8 0 l 282 363 l 32 708 "},"y":{"ha":679,"x_min":0,"x_max":0,"o":"m 374 -58 b 176 -239 343 -135 307 -239 b 82 -225 132 -239 100 -231 l 82 -142 l 99 -142 b 240 -103 160 -147 203 -143 b 271 58 269 -71 299 -11 l 3 708 l 128 708 l 344 131 l 347 131 l 551 708 l 676 708 "},"ý":{"ha":679,"x_min":0,"x_max":0,"o":"m 485 1007 l 383 831 l 293 831 l 353 1007 m 374 -58 b 176 -239 343 -135 307 -239 b 82 -225 132 -239 100 -231 l 82 -142 l 99 -142 b 240 -103 160 -147 203 -143 b 271 58 269 -71 299 -11 l 3 708 l 128 708 l 344 131 l 347 131 l 551 708 l 676 708 "},"ŷ":{"ha":679,"x_min":0,"x_max":0,"o":"m 278 1007 l 403 1007 l 531 831 l 419 831 l 342 947 l 339 947 l 261 831 l 150 831 m 374 -58 b 176 -239 343 -135 307 -239 b 82 -225 132 -239 100 -231 l 82 -142 l 99 -142 b 240 -103 160 -147 203 -143 b 271 58 269 -71 299 -11 l 3 708 l 128 708 l 344 131 l 347 131 l 551 708 l 676 708 "},"ÿ":{"ha":679,"x_min":0,"x_max":0,"o":"m 167 936 b 236 1006 167 974 192 1006 b 306 936 281 1006 306 974 b 236 868 306 900 281 868 b 167 936 192 868 167 900 m 375 936 b 444 1006 375 974 400 1006 b 514 936 489 1006 514 974 b 444 868 514 900 489 868 b 375 936 400 868 375 900 m 374 -58 b 176 -239 343 -135 307 -239 b 82 -225 132 -239 100 -231 l 82 -142 l 99 -142 b 240 -103 160 -147 203 -143 b 271 58 269 -71 299 -11 l 3 708 l 128 708 l 344 131 l 347 131 l 551 708 l 676 708 "},"ỳ":{"ha":679,"x_min":0,"x_max":0,"o":"m 388 831 l 297 831 l 196 1007 l 328 1007 m 374 -58 b 176 -239 343 -135 307 -239 b 82 -225 132 -239 100 -231 l 82 -142 l 99 -142 b 240 -103 160 -147 203 -143 b 271 58 269 -71 299 -11 l 3 708 l 128 708 l 344 131 l 347 131 l 551 708 l 676 708 "},"z":{"ha":654,"x_min":0,"x_max":0,"o":"m 447 608 l 447 611 l 71 611 l 71 708 l 604 708 l 604 642 l 192 100 l 192 97 l 619 97 l 619 0 l 47 0 l 47 83 "},"ź":{"ha":654,"x_min":0,"x_max":0,"o":"m 483 1007 l 382 831 l 292 831 l 351 1007 m 447 608 l 447 611 l 71 611 l 71 708 l 604 708 l 604 642 l 192 100 l 192 97 l 619 97 l 619 0 l 47 0 l 47 83 "},"ž":{"ha":654,"x_min":0,"x_max":0,"o":"m 260 1007 l 338 890 l 340 890 l 418 1007 l 529 1007 l 401 831 l 276 831 l 149 1007 m 447 608 l 447 611 l 71 611 l 71 708 l 604 708 l 604 642 l 192 100 l 192 97 l 619 97 l 619 0 l 47 0 l 47 83 "},"ż":{"ha":654,"x_min":0,"x_max":0,"o":"m 269 936 b 339 1006 269 974 294 1006 b 408 936 383 1006 408 974 b 339 868 408 900 383 868 b 269 936 294 868 269 900 m 447 608 l 447 611 l 71 611 l 71 708 l 604 708 l 604 642 l 192 100 l 192 97 l 619 97 l 619 0 l 47 0 l 47 83 "},"⁄":{"ha":343,"x_min":0,"x_max":0,"o":"m 590 993 l -150 0 l -247 0 l 493 993 "},"*":{"ha":511,"x_min":0,"x_max":0,"o":"m 318 775 l 401 654 l 342 613 l 256 740 l 169 613 l 110 654 l 193 775 l 61 821 l 86 885 l 218 842 l 218 993 l 293 993 l 293 842 l 425 885 l 450 821 "},"\\":{"ha":540,"x_min":0,"x_max":0,"o":"m 133 993 l 518 0 l 407 0 l 22 993 "},"·":{"ha":275,"x_min":0,"x_max":0,"o":"m 142 354 b 65 431 99 354 65 383 b 142 507 65 476 99 507 b 218 431 185 507 218 476 b 142 354 218 383 185 354 "},"•":{"ha":428,"x_min":0,"x_max":0,"o":"m 214 278 b 47 444 111 278 47 353 b 214 611 47 536 111 611 b 381 444 317 611 381 536 b 214 278 381 353 317 278 "},":":{"ha":283,"x_min":0,"x_max":0,"o":"m 142 414 b 65 490 99 414 65 443 b 142 567 65 536 99 567 b 218 490 185 567 218 536 b 142 414 218 443 185 414 m 142 -10 b 65 67 99 -10 65 19 b 142 143 65 113 99 143 b 218 67 185 143 218 113 b 142 -10 218 19 185 -10 "},",":{"ha":275,"x_min":0,"x_max":0,"o":"m 144 -8 b 61 63 101 -22 61 1 b 136 143 61 115 94 143 b 214 35 188 143 214 100 b 75 -176 214 -39 183 -157 l 75 -107 b 144 -8 118 -97 144 -60 "},"…":{"ha":719,"x_min":0,"x_max":0,"o":"m 138 -10 b 61 67 94 -10 61 19 b 138 143 61 113 94 143 b 214 67 181 143 214 113 b 138 -10 214 19 181 -10 m 360 -10 b 283 67 317 -10 283 19 b 360 143 283 113 317 143 b 436 67 403 143 436 113 b 360 -10 436 19 403 -10 m 582 -10 b 506 67 539 -10 506 19 b 582 143 506 113 539 143 b 658 67 625 143 658 113 b 582 -10 658 19 625 -10 "},"!":{"ha":331,"x_min":0,"x_max":0,"o":"m 235 993 l 235 708 l 207 256 l 138 256 l 110 708 l 110 993 m 172 -10 b 96 67 129 -10 96 19 b 172 143 96 113 129 143 b 249 67 215 143 249 113 b 172 -10 249 19 215 -10 "},"¡":{"ha":344,"x_min":0,"x_max":0,"o":"m 172 822 b 249 746 215 822 249 793 b 172 669 249 700 215 669 b 96 746 129 669 96 700 b 172 822 96 793 129 822 m 110 104 l 138 557 l 207 557 l 235 104 l 235 -181 l 110 -181 "},"#":{"ha":804,"x_min":0,"x_max":0,"o":"m 597 599 l 556 385 l 718 385 l 703 288 l 536 288 l 479 0 l 382 0 l 438 288 l 274 288 l 217 0 l 119 0 l 176 288 l 43 288 l 60 385 l 196 385 l 238 599 l 86 599 l 103 696 l 257 696 l 308 960 l 406 960 l 354 696 l 518 696 l 569 960 l 668 960 l 617 696 l 761 696 l 743 599 m 499 599 l 335 599 l 293 385 l 457 385 "},".":{"ha":275,"x_min":0,"x_max":0,"o":"m 138 -10 b 61 67 94 -10 61 19 b 138 143 61 113 94 143 b 214 67 181 143 214 113 b 138 -10 214 19 181 -10 "},"?":{"ha":700,"x_min":0,"x_max":0,"o":"m 24 671 b 360 1013 24 868 131 1013 b 658 758 529 1013 658 907 b 513 525 658 635 589 588 b 367 254 436 463 367 411 l 242 254 b 406 569 242 415 324 497 b 533 758 471 628 533 656 b 360 901 533 840 467 901 b 149 671 238 901 149 844 m 304 -10 b 228 67 261 -10 228 19 b 304 143 228 113 261 143 b 381 67 347 143 381 113 b 304 -10 381 19 347 -10 "},"¿":{"ha":700,"x_min":0,"x_max":0,"o":"m 396 821 b 472 744 439 821 472 792 b 396 668 472 699 439 668 b 319 744 353 668 319 699 b 396 821 319 792 353 821 m 676 140 b 340 -201 676 -57 569 -201 b 42 53 171 -201 42 -96 b 188 286 42 176 111 224 b 333 557 264 349 333 400 l 458 557 b 294 242 458 396 376 314 b 167 53 229 183 167 156 b 340 -90 167 -29 233 -90 b 551 140 463 -90 551 -33 "},"\"":{"ha":429,"x_min":0,"x_max":0,"o":"m 169 993 l 156 696 l 72 696 l 58 993 m 371 993 l 357 696 l 274 696 l 260 993 "},"'":{"ha":228,"x_min":0,"x_max":0,"o":"m 169 993 l 156 696 l 72 696 l 58 993 "},";":{"ha":283,"x_min":0,"x_max":0,"o":"m 142 414 b 65 490 99 414 65 443 b 142 567 65 536 99 567 b 218 490 185 567 218 536 b 142 414 218 443 185 414 m 149 -8 b 65 63 106 -22 65 1 b 140 143 65 115 99 143 b 218 35 192 143 218 100 b 79 -176 218 -39 188 -157 l 79 -107 b 149 -8 122 -97 149 -60 "},"/":{"ha":563,"x_min":0,"x_max":0,"o":"m 133 0 l 22 0 l 407 993 l 518 993 "},"_":{"ha":567,"x_min":0,"x_max":0,"o":"m 569 -119 l 569 -231 l -3 -231 l -3 -119 "},"{":{"ha":411,"x_min":0,"x_max":0,"o":"m 33 499 b 114 629 101 497 114 558 l 114 779 b 343 1049 114 1013 186 1049 l 369 1049 l 369 938 l 343 938 b 239 808 276 938 239 910 l 239 593 b 157 444 239 514 204 472 l 157 442 b 239 292 204 414 239 372 l 239 83 b 343 -51 239 -24 276 -51 l 369 -51 l 369 -162 l 343 -162 b 114 113 186 -162 114 -121 l 114 256 b 33 388 114 326 101 388 l 33 499 "},"}":{"ha":411,"x_min":0,"x_max":0,"o":"m 378 388 b 297 256 310 388 297 326 l 297 113 b 68 -162 297 -121 225 -162 l 42 -162 l 42 -51 l 68 -51 b 172 83 135 -51 172 -24 l 172 292 b 254 442 172 372 207 414 l 254 444 b 172 593 207 472 172 514 l 172 808 b 68 938 172 910 135 938 l 42 938 l 42 1049 l 68 1049 b 297 779 225 1049 297 1013 l 297 629 b 378 499 297 558 310 497 "},"[":{"ha":411,"x_min":0,"x_max":0,"o":"m 369 1049 l 369 938 l 232 938 l 232 -51 l 369 -51 l 369 -162 l 107 -162 l 107 1049 "},"]":{"ha":411,"x_min":0,"x_max":0,"o":"m 304 -162 l 42 -162 l 42 -51 l 179 -51 l 179 938 l 42 938 l 42 1049 l 304 1049 "},"(":{"ha":422,"x_min":0,"x_max":0,"o":"m 393 1049 b 224 440 299 881 224 697 b 393 -162 224 189 299 6 l 296 -162 b 99 440 188 -22 99 189 b 296 1049 99 700 188 908 "},")":{"ha":422,"x_min":0,"x_max":0,"o":"m 128 1049 b 325 440 236 908 325 700 b 128 -162 325 189 236 -22 l 31 -162 b 200 440 125 6 200 189 b 31 1049 200 697 125 881 l 128 1049 "},"—":{"ha":1389,"x_min":0,"x_max":0,"o":"m 1250 408 l 1250 297 l 139 297 l 139 408 "},"–":{"ha":694,"x_min":0,"x_max":0,"o":"m 694 410 l 694 299 l 0 299 l 0 410 "},"-":{"ha":478,"x_min":0,"x_max":0,"o":"m 425 410 l 425 299 l 53 299 l 53 410 "},"«":{"ha":533,"x_min":0,"x_max":0,"o":"m 42 413 l 232 571 l 232 460 l 100 351 l 100 349 l 232 240 l 232 129 l 42 288 m 301 413 l 492 571 l 492 460 l 360 351 l 360 349 l 492 240 l 492 129 l 301 288 "},"»":{"ha":533,"x_min":0,"x_max":0,"o":"m 42 129 l 42 240 l 174 349 l 174 351 l 42 460 l 42 571 l 232 413 l 232 288 m 301 129 l 301 240 l 433 349 l 433 351 l 301 460 l 301 571 l 492 413 l 492 288 "},"‹":{"ha":342,"x_min":0,"x_max":0,"o":"m 69 413 l 272 571 l 272 460 l 128 351 l 128 349 l 272 240 l 272 129 l 69 288 "},"›":{"ha":342,"x_min":0,"x_max":0,"o":"m 69 129 l 69 240 l 214 349 l 214 351 l 69 460 l 69 571 l 272 413 l 272 288 "},"„":{"ha":475,"x_min":0,"x_max":0,"o":"m 142 -8 b 58 63 99 -22 58 1 b 133 143 58 115 92 143 b 211 35 185 143 211 100 b 72 -176 211 -39 181 -157 l 72 -107 b 142 -8 115 -97 142 -60 m 347 -8 b 264 63 304 -22 264 1 b 339 143 264 115 297 143 b 417 35 390 143 417 100 b 278 -176 417 -39 386 -157 l 278 -107 b 347 -8 321 -97 347 -60 "},"“":{"ha":474,"x_min":0,"x_max":0,"o":"m 128 828 b 211 757 171 842 211 818 b 136 676 211 704 178 676 b 58 785 85 676 58 719 b 197 996 58 858 89 976 l 197 926 b 128 828 154 917 128 879 m 332 828 b 415 757 375 842 415 818 b 340 676 415 704 382 676 b 263 785 289 676 263 719 b 401 996 263 858 293 976 l 401 926 b 332 828 358 917 332 879 "},"”":{"ha":474,"x_min":0,"x_max":0,"o":"m 142 851 b 58 922 99 838 58 861 b 133 1003 58 975 92 1003 b 211 894 185 1003 211 960 b 72 683 211 821 181 703 l 72 753 b 142 851 115 763 142 800 m 346 851 b 263 922 303 838 263 861 b 338 1003 263 975 296 1003 b 415 894 389 1003 415 960 b 276 683 415 821 385 703 l 276 753 b 346 851 319 763 346 800 "},"‘":{"ha":267,"x_min":0,"x_max":0,"o":"m 128 828 b 211 757 171 842 211 818 b 136 676 211 704 178 676 b 58 785 85 676 58 719 b 197 996 58 858 89 976 l 197 926 b 128 828 154 917 128 879 "},"’":{"ha":269,"x_min":0,"x_max":0,"o":"m 142 851 b 58 922 99 838 58 861 b 133 1003 58 975 92 1003 b 211 894 185 1003 211 960 b 72 683 211 821 181 703 l 72 753 b 142 851 115 763 142 800 "},"‚":{"ha":269,"x_min":0,"x_max":0,"o":"m 142 -8 b 58 63 99 -22 58 1 b 133 143 58 115 92 143 b 211 35 185 143 211 100 b 72 -176 211 -39 181 -157 l 72 -107 b 142 -8 115 -97 142 -60 "}," ":{"ha":278,"x_min":0,"x_max":0,"o":""},"¢":{"ha":721,"x_min":0,"x_max":0,"o":"m 411 79 b 579 261 531 93 574 183 l 690 261 b 411 -18 681 110 569 -4 l 411 -118 l 328 -118 l 328 -17 b 36 354 150 7 36 151 b 328 725 36 557 150 701 l 328 821 l 411 821 l 411 726 b 690 453 568 713 675 601 l 579 453 b 411 629 574 525 529 615 l 411 79 m 147 354 b 328 83 147 235 199 108 l 328 625 b 147 354 199 600 147 474 "},"¤":{"ha":675,"x_min":0,"x_max":0,"o":"m 607 478 b 560 317 607 413 589 360 l 650 226 l 590 167 l 501 256 b 338 201 454 219 394 201 b 174 256 279 201 221 219 l 85 167 l 25 225 l 115 315 b 67 478 85 358 67 413 b 115 642 67 543 85 599 l 25 732 l 85 790 l 174 701 b 338 754 222 736 281 754 b 500 700 394 754 453 736 l 589 789 l 650 731 l 558 640 b 607 478 589 597 607 543 m 178 478 b 338 299 178 354 247 299 b 496 478 426 299 496 354 b 338 657 496 601 426 657 b 178 478 247 657 178 601 "},"$":{"ha":804,"x_min":0,"x_max":0,"o":"m 763 246 b 453 -19 763 106 663 -11 l 453 -118 l 369 -118 l 369 -17 b 22 319 183 4 35 114 l 147 319 b 369 96 160 196 225 114 l 369 444 b 64 710 239 481 64 539 b 369 971 64 863 179 965 l 369 1051 l 453 1051 l 453 965 b 735 657 604 942 722 839 l 610 657 b 453 853 597 769 542 832 l 453 542 b 763 246 631 486 763 440 m 189 724 b 369 568 189 633 268 600 l 369 860 b 189 724 258 856 189 803 m 453 92 b 638 246 582 99 638 161 b 453 419 638 340 585 378 l 453 92 "},"€":{"ha":868,"x_min":0,"x_max":0,"o":"m 492 92 b 701 344 644 92 693 219 l 826 344 b 492 -19 804 125 694 -19 b 129 351 294 -19 164 124 l 42 351 l 42 435 l 122 435 b 121 476 121 449 121 463 b 122 514 121 489 121 501 l 42 514 l 42 597 l 129 597 b 492 971 163 826 294 971 b 826 638 693 971 803 826 l 701 638 b 492 860 683 732 643 860 b 254 597 349 860 278 744 l 531 597 l 531 514 l 247 514 b 246 476 246 501 246 489 b 247 435 246 463 246 449 l 531 435 l 531 351 l 256 351 b 492 92 279 206 350 92 "},"£":{"ha":765,"x_min":0,"x_max":0,"o":"m 747 64 b 553 -19 694 24 640 -19 b 279 65 432 -19 372 65 b 110 0 221 65 182 46 l 43 92 b 172 369 118 140 172 244 b 171 390 172 376 172 383 l 57 390 l 57 501 l 133 501 b 85 692 111 553 85 608 b 401 971 85 806 168 971 b 719 644 628 971 719 829 l 594 644 b 401 860 594 779 540 860 b 210 682 278 860 210 788 b 263 501 210 610 239 557 l 478 501 l 478 390 l 296 390 b 297 363 297 382 297 372 b 185 125 297 260 253 174 l 186 122 b 322 165 218 138 258 165 b 539 103 419 165 458 103 b 694 165 603 103 644 128 "},"¥":{"ha":781,"x_min":0,"x_max":0,"o":"m 469 424 l 696 424 l 696 340 l 453 340 l 453 261 l 696 261 l 696 178 l 453 178 l 453 0 l 328 0 l 328 178 l 85 178 l 85 261 l 328 261 l 328 340 l 85 340 l 85 424 l 311 424 l 14 953 l 149 953 l 389 494 l 392 494 l 632 953 l 767 953 "},"+":{"ha":778,"x_min":0,"x_max":0,"o":"m 74 397 l 74 507 l 333 507 l 333 775 l 444 775 l 444 507 l 704 507 l 704 397 l 444 397 l 444 129 l 333 129 l 333 397 "},"−":{"ha":778,"x_min":0,"x_max":0,"o":"m 704 519 l 704 408 l 74 408 l 74 519 "},"×":{"ha":778,"x_min":0,"x_max":0,"o":"m 468 451 l 678 242 l 599 163 l 389 372 l 179 163 l 100 242 l 310 451 l 100 661 l 179 740 l 389 531 l 599 740 l 678 661 "},"÷":{"ha":778,"x_min":0,"x_max":0,"o":"m 389 607 b 306 683 335 607 306 635 b 389 760 306 732 335 760 b 472 683 442 760 472 732 b 389 607 472 635 442 607 m 74 510 l 704 510 l 704 399 l 74 399 m 389 146 b 306 222 335 146 306 174 b 389 299 306 271 335 299 b 472 222 442 299 472 271 b 389 146 472 174 442 146 "},"=":{"ha":778,"x_min":0,"x_max":0,"o":"m 704 601 l 704 490 l 74 490 l 74 601 m 704 381 l 704 269 l 74 269 l 74 381 "},"≠":{"ha":778,"x_min":0,"x_max":0,"o":"m 468 490 l 417 381 l 704 381 l 704 269 l 365 269 l 293 117 l 196 117 l 268 269 l 74 269 l 74 381 l 319 381 l 371 490 l 74 490 l 74 601 l 424 601 l 486 735 l 583 735 l 521 601 l 704 601 l 704 490 "},">":{"ha":710,"x_min":0,"x_max":0,"o":"m 75 246 l 550 431 l 550 433 l 75 619 l 75 731 l 640 494 l 640 369 l 75 135 "},"<":{"ha":743,"x_min":0,"x_max":0,"o":"m 69 369 l 69 494 l 635 731 l 635 619 l 160 433 l 160 431 l 635 246 l 635 135 "},"≥":{"ha":710,"x_min":0,"x_max":0,"o":"m 75 260 l 550 438 l 550 440 l 75 619 l 75 731 l 640 501 l 640 376 l 75 149 m 640 97 l 640 0 l 75 0 l 75 97 "},"≤":{"ha":743,"x_min":0,"x_max":0,"o":"m 69 376 l 69 501 l 635 731 l 635 619 l 160 440 l 160 438 l 635 260 l 635 149 m 635 0 l 69 0 l 69 97 l 635 97 "},"±":{"ha":778,"x_min":0,"x_max":0,"o":"m 74 536 l 333 536 l 333 775 l 444 775 l 444 536 l 704 536 l 704 426 l 444 426 l 444 186 l 333 186 l 333 426 l 74 426 m 704 97 l 704 0 l 74 0 l 74 97 "},"≈":{"ha":778,"x_min":0,"x_max":0,"o":"m 546 468 b 225 517 444 468 328 517 b 147 454 165 517 147 499 l 50 454 b 208 614 50 521 82 614 b 529 565 311 614 426 565 b 607 628 589 565 607 583 l 704 628 b 546 468 704 561 672 468 m 546 250 b 225 299 444 250 328 299 b 147 236 165 299 147 281 l 50 236 b 208 396 50 303 82 396 b 529 347 311 396 426 347 b 607 410 589 347 607 365 l 704 410 b 546 250 704 343 672 250 "},"~":{"ha":546,"x_min":0,"x_max":0,"o":"m 50 375 b 174 539 50 469 96 539 b 346 479 256 539 301 479 b 399 539 388 479 399 515 l 496 539 b 372 375 496 444 450 375 b 200 435 292 375 244 435 b 147 375 158 435 147 399 l 50 375 "},"¬":{"ha":778,"x_min":0,"x_max":0,"o":"m 88 442 l 88 553 l 663 553 l 663 200 l 538 200 l 538 442 "},"∅":{"ha":1107,"x_min":0,"x_max":0,"o":"m 940 817 b 1065 479 1018 731 1065 615 b 554 -19 1065 182 840 -19 b 217 94 425 -19 307 22 l 128 6 l 79 54 l 167 142 b 42 479 89 228 42 343 b 554 979 42 776 268 979 b 890 865 683 979 800 938 l 981 956 l 1029 906 l 940 817 m 111 479 b 218 193 111 365 151 267 l 839 814 b 554 910 763 875 663 910 b 111 479 310 910 111 735 m 554 50 b 996 479 797 50 996 225 b 890 767 996 594 956 693 l 268 146 b 554 50 346 85 446 50 "},"∞":{"ha":993,"x_min":0,"x_max":0,"o":"m 49 422 b 246 664 49 588 146 664 b 496 514 371 664 443 575 l 499 514 b 747 664 551 575 622 664 b 944 422 847 664 944 588 b 747 182 944 258 847 182 b 499 346 622 182 551 285 l 496 346 b 246 182 443 285 371 182 b 49 422 146 182 49 258 m 269 294 b 440 424 346 294 401 375 b 269 554 401 472 346 554 b 160 424 206 554 160 514 b 269 294 160 333 206 294 m 724 294 b 833 424 788 294 833 333 b 724 554 833 514 788 554 b 553 424 647 554 592 472 b 724 294 592 375 647 294 "},"∫":{"ha":469,"x_min":0,"x_max":0,"o":"m 282 -11 b 85 -243 282 -143 219 -243 b -14 -229 40 -243 7 -236 l -14 -118 b 157 35 122 -146 157 -62 l 157 794 b 354 1026 157 926 219 1026 b 453 1013 399 1026 432 1019 l 453 901 b 282 749 317 929 282 846 l 282 -11 "},"∏":{"ha":976,"x_min":0,"x_max":0,"o":"m 878 993 l 878 -139 l 753 -139 l 753 882 l 224 882 l 224 -139 l 99 -139 l 99 993 "},"∑":{"ha":856,"x_min":0,"x_max":0,"o":"m 440 438 l 440 440 l 56 879 l 56 993 l 789 993 l 789 882 l 201 882 l 201 879 l 546 478 l 546 408 l 192 -25 l 192 -28 l 803 -28 l 803 -139 l 56 -139 l 56 -24 "},"√":{"ha":804,"x_min":0,"x_max":0,"o":"m 207 436 l 342 17 l 344 17 l 665 993 l 790 993 l 399 -139 l 288 -139 l 122 325 l 19 325 l 19 436 "},"∂":{"ha":763,"x_min":0,"x_max":0,"o":"m 576 569 b 228 882 540 789 385 868 l 228 993 b 701 439 564 979 701 722 b 344 -19 701 203 599 -19 b 61 301 175 -19 61 103 b 381 654 61 485 192 654 b 576 567 461 654 531 626 m 361 92 b 576 344 493 92 576 210 b 400 543 576 450 506 543 b 186 289 271 543 186 422 b 361 92 186 168 268 92 "},"%":{"ha":1129,"x_min":0,"x_max":0,"o":"m 257 429 b 33 704 106 429 33 556 b 257 979 33 853 106 979 b 481 704 411 979 481 853 b 257 429 481 556 411 429 m 361 0 l 264 0 l 768 960 l 865 960 m 257 526 b 383 704 342 526 383 599 b 257 882 383 810 342 882 b 131 704 172 882 131 810 b 257 526 131 599 172 526 m 872 -19 b 649 256 721 -19 649 107 b 872 531 649 404 721 531 b 1096 256 1026 531 1096 404 b 872 -19 1096 107 1026 -19 m 872 78 b 999 256 957 78 999 150 b 872 433 999 361 957 433 b 746 256 788 433 746 361 b 872 78 746 150 788 78 "},"‰":{"ha":1629,"x_min":0,"x_max":0,"o":"m 257 429 b 33 704 106 429 33 556 b 257 979 33 853 106 979 b 481 704 411 979 481 853 b 257 429 481 556 411 429 m 361 0 l 264 0 l 768 960 l 865 960 m 257 526 b 383 704 342 526 383 599 b 257 882 383 810 342 882 b 131 704 172 882 131 810 b 257 526 131 599 172 526 m 872 -19 b 649 256 721 -19 649 107 b 872 531 649 404 721 531 b 1096 256 1026 531 1096 404 b 872 -19 1096 107 1026 -19 m 1372 -19 b 1149 256 1221 -19 1149 107 b 1372 531 1149 404 1221 531 b 1596 256 1526 531 1596 404 b 1372 -19 1596 107 1526 -19 m 872 78 b 999 256 957 78 999 150 b 872 433 999 361 957 433 b 746 256 788 433 746 361 b 872 78 746 150 788 78 m 1372 78 b 1499 256 1457 78 1499 150 b 1372 433 1499 361 1457 433 b 1246 256 1288 433 1246 361 b 1372 78 1246 150 1288 78 "},"↑":{"ha":833,"x_min":0,"x_max":0,"o":"m 724 538 l 465 781 l 465 0 l 368 0 l 368 781 l 110 538 l 42 613 l 417 960 l 792 613 "},"↗":{"ha":815,"x_min":0,"x_max":0,"o":"m 672 318 l 663 672 l 110 121 l 42 189 l 593 740 l 239 751 l 243 853 l 754 833 l 774 322 "},"→":{"ha":1043,"x_min":0,"x_max":0,"o":"m 579 136 l 822 394 l 42 394 l 42 492 l 822 492 l 579 750 l 654 818 l 1001 443 l 654 68 "},"↘":{"ha":815,"x_min":0,"x_max":0,"o":"m 754 61 l 243 42 l 239 143 l 593 154 l 42 706 l 110 774 l 663 222 l 672 576 l 774 572 "},"↓":{"ha":833,"x_min":0,"x_max":0,"o":"m 417 -56 l 42 292 l 110 367 l 368 124 l 368 904 l 465 904 l 465 124 l 724 367 l 792 292 "},"↙":{"ha":815,"x_min":0,"x_max":0,"o":"m 139 576 l 149 222 l 701 774 l 769 706 l 218 154 l 572 143 l 568 42 l 57 61 l 38 572 "},"←":{"ha":1043,"x_min":0,"x_max":0,"o":"m 42 443 l 389 818 l 464 750 l 221 492 l 1001 492 l 1001 394 l 221 394 l 464 136 l 389 68 "},"↖":{"ha":815,"x_min":0,"x_max":0,"o":"m 57 833 l 568 853 l 572 751 l 218 740 l 769 189 l 701 121 l 149 672 l 139 318 l 38 322 "},"↔":{"ha":1583,"x_min":0,"x_max":0,"o":"m 1542 443 l 1194 68 l 1119 136 l 1363 394 l 221 394 l 464 136 l 389 68 l 42 443 l 389 818 l 464 750 l 221 492 l 1363 492 l 1119 750 l 1194 818 "},"↕":{"ha":833,"x_min":0,"x_max":0,"o":"m 724 176 l 792 101 l 417 -246 l 42 101 l 110 176 l 368 -67 l 368 913 l 110 669 l 42 744 l 417 1092 l 792 744 l 724 669 l 465 913 l 465 -67 "},"◊":{"ha":758,"x_min":0,"x_max":0,"o":"m 317 993 l 442 993 l 722 496 l 442 0 l 317 0 l 36 497 m 597 492 l 379 882 l 376 882 l 161 500 l 379 111 l 382 111 "},"@":{"ha":1222,"x_min":0,"x_max":0,"o":"m 932 110 b 758 222 844 110 794 151 l 756 222 b 556 115 715 157 656 115 b 324 400 426 115 324 222 b 583 718 324 592 440 718 b 781 597 676 718 756 663 l 783 597 l 799 708 l 896 708 l 851 360 b 940 207 839 265 867 207 b 1079 444 1024 207 1079 286 b 625 893 1079 708 900 893 b 143 410 332 893 143 656 b 611 -50 143 136 347 -50 b 860 -8 696 -50 778 -42 l 894 -87 b 611 -147 804 -135 710 -147 b 46 410 286 -147 46 67 b 625 990 46 725 286 990 b 1176 449 964 990 1176 750 b 932 110 1176 185 1035 110 m 575 213 b 756 438 690 213 756 313 b 601 621 756 561 685 621 b 421 396 482 621 421 521 b 575 213 421 290 469 213 "},"&":{"ha":815,"x_min":0,"x_max":0,"o":"m 694 0 l 615 97 b 351 -19 550 26 464 -19 b 54 244 161 -19 54 93 b 256 538 54 389 154 474 b 140 783 188 622 140 693 b 374 1013 140 896 214 1011 b 607 783 524 1014 607 896 b 403 522 607 671 532 600 l 606 272 b 663 469 633 332 653 400 l 774 469 b 679 182 761 375 732 271 l 826 0 m 374 901 b 251 775 296 901 251 843 b 346 592 251 715 293 657 b 496 775 438 646 496 690 b 374 901 496 843 451 901 m 351 92 b 546 182 433 92 497 126 l 311 468 b 165 244 222 408 165 339 b 351 92 165 165 229 92 "},"¶":{"ha":763,"x_min":0,"x_max":0,"o":"m 306 465 b 40 725 129 465 40 558 b 306 993 40 892 129 993 l 669 993 l 669 0 l 572 0 l 572 882 l 467 882 l 467 0 l 369 0 l 369 465 "},"§":{"ha":808,"x_min":0,"x_max":0,"o":"m 769 306 b 604 121 769 203 707 140 b 664 -39 640 76 664 25 b 401 -243 664 -150 582 -243 b 131 -11 211 -243 136 -133 l 242 -11 b 401 -146 247 -65 254 -146 b 553 -47 518 -146 553 -103 b 321 175 553 50 406 122 b 39 464 167 269 39 324 b 206 647 39 564 97 625 b 144 808 169 690 144 743 b 407 1013 144 919 226 1013 b 678 781 597 1013 672 903 l 567 781 b 407 915 561 835 554 915 b 256 817 290 915 256 872 b 488 594 256 719 401 646 b 769 306 643 501 769 432 m 532 188 b 658 292 626 204 658 238 b 424 492 658 363 560 417 b 276 582 376 518 324 546 b 150 478 182 565 150 532 b 385 278 150 393 249 353 b 532 188 432 251 485 224 "},"©":{"ha":1135,"x_min":0,"x_max":0,"o":"m 568 -22 b 56 496 254 -22 56 199 b 568 1015 56 793 254 1015 b 1079 496 882 1015 1079 793 b 568 -22 1079 199 882 -22 m 568 33 b 1010 496 839 33 1010 242 b 568 960 1010 751 839 960 b 125 496 296 960 125 751 b 568 33 125 242 296 33 m 736 585 b 569 711 731 618 699 711 b 385 496 424 711 385 607 b 569 282 385 386 424 282 b 736 410 699 282 731 371 l 833 410 b 576 185 825 286 731 185 b 288 496 390 185 288 313 b 565 808 288 678 385 808 b 833 585 722 808 819 707 l 736 585 "},"®":{"ha":733,"x_min":0,"x_max":0,"o":"m 367 343 b 36 679 182 343 36 486 b 367 1015 36 872 182 1015 b 697 679 551 1015 697 872 b 367 343 697 486 551 343 m 367 399 b 642 679 519 399 642 517 b 367 960 642 840 519 960 b 92 679 214 960 92 840 b 367 399 92 517 214 399 m 244 861 l 389 861 b 507 760 460 861 507 822 b 443 669 507 708 482 679 l 443 668 b 511 507 522 653 493 513 l 511 504 l 449 504 b 364 649 433 519 468 649 l 303 649 l 303 504 l 244 504 m 303 701 l 364 701 b 447 754 401 701 447 700 b 364 807 447 810 401 807 l 303 807 "},"™":{"ha":874,"x_min":0,"x_max":0,"o":"m 44 928 l 44 993 l 372 993 l 372 928 l 247 928 l 247 610 l 169 610 l 169 928 m 535 993 l 621 704 l 622 704 l 710 993 l 822 993 l 822 610 l 750 610 l 750 900 l 747 900 l 658 610 l 585 610 l 497 900 l 494 900 l 494 610 l 424 610 l 424 993 "},"°":{"ha":511,"x_min":0,"x_max":0,"o":"m 256 596 b 47 804 113 596 47 711 b 256 1013 47 897 113 1013 b 464 804 397 1013 464 897 b 256 596 464 711 397 596 m 256 679 b 381 804 333 679 381 733 b 256 929 381 875 333 929 b 131 804 178 929 131 875 b 256 679 131 733 178 679 "},"|":{"ha":311,"x_min":0,"x_max":0,"o":"m 204 1033 l 204 -178 l 107 -178 l 107 1033 "},"¦":{"ha":311,"x_min":0,"x_max":0,"o":"m 204 1033 l 204 533 l 107 533 l 107 1033 m 204 340 l 204 -178 l 107 -178 l 107 340 "},"†":{"ha":707,"x_min":0,"x_max":0,"o":"m 47 600 l 47 711 l 292 711 l 292 993 l 417 993 l 417 711 l 660 711 l 660 600 l 417 600 l 417 -246 l 292 -246 l 292 600 "},"‡":{"ha":707,"x_min":0,"x_max":0,"o":"m 47 156 l 47 267 l 292 267 l 292 600 l 47 600 l 47 711 l 292 711 l 292 993 l 417 993 l 417 711 l 660 711 l 660 600 l 417 600 l 417 267 l 660 267 l 660 156 l 417 156 l 417 -246 l 292 -246 l 292 156 "},"^":{"ha":629,"x_min":0,"x_max":0,"o":"m 371 993 l 614 611 l 490 611 l 315 892 l 314 892 l 140 611 l 15 611 l 260 993 "},"̈":{"ha":0,"x_min":0,"x_max":0,"o":"m -389 936 b -319 1006 -389 974 -364 1006 b -250 936 -275 1006 -250 974 b -319 868 -250 900 -275 868 b -389 936 -364 868 -389 900 m -181 936 b -111 1006 -181 974 -156 1006 b -42 936 -67 1006 -42 974 b -111 868 -42 900 -67 868 b -181 936 -156 868 -181 900 "},"̇":{"ha":0,"x_min":0,"x_max":0,"o":"m -181 936 b -111 1006 -181 974 -156 1006 b -42 936 -67 1006 -42 974 b -111 868 -42 900 -67 868 b -181 936 -156 868 -181 900 "},"̀":{"ha":0,"x_min":0,"x_max":0,"o":"m -42 831 l -132 831 l -233 1007 l -101 1007 "},"́":{"ha":0,"x_min":0,"x_max":0,"o":"m -42 1007 l -143 831 l -233 831 l -174 1007 "},"̋":{"ha":0,"x_min":0,"x_max":0,"o":"m -239 1007 l -340 831 l -431 831 l -371 1007 m -42 1007 l -143 831 l -233 831 l -174 1007 "},"̂":{"ha":0,"x_min":0,"x_max":0,"o":"m -294 1007 l -169 1007 l -42 831 l -153 831 l -231 947 l -233 947 l -311 831 l -422 831 "},"̌":{"ha":0,"x_min":0,"x_max":0,"o":"m -311 1007 l -233 890 l -231 890 l -153 1007 l -42 1007 l -169 831 l -294 831 l -422 1007 "},"̆":{"ha":0,"x_min":0,"x_max":0,"o":"m -218 825 b -394 1007 -317 825 -390 883 l -311 1007 b -218 908 -307 939 -278 908 b -125 1007 -158 908 -129 939 l -42 1007 b -218 825 -47 888 -117 825 "},"̊":{"ha":0,"x_min":0,"x_max":0,"o":"m -164 810 b -285 931 -229 810 -285 858 b -164 1053 -285 1001 -229 1053 b -42 931 -97 1053 -42 1001 b -164 810 -42 858 -97 810 m -164 865 b -99 931 -131 865 -99 890 b -164 997 -99 971 -131 997 b -228 931 -197 997 -228 971 b -164 865 -228 890 -197 865 "},"̃":{"ha":0,"x_min":0,"x_max":0,"o":"m -429 865 b -326 996 -429 958 -378 996 b -157 946 -258 996 -194 946 b -125 993 -128 946 -125 974 l -42 993 b -144 863 -42 897 -93 863 b -314 913 -212 863 -276 913 b -346 865 -343 913 -346 882 l -429 865 "},"̄":{"ha":0,"x_min":0,"x_max":0,"o":"m -42 972 l -42 875 l -400 875 l -400 972 "},"̒":{"ha":0,"x_min":0,"x_max":0,"o":"m -94 936 b -11 869 -51 950 -11 931 b -83 793 -11 824 -44 793 b -164 911 -137 793 -164 842 b -25 1090 -164 971 -133 1071 l -25 1035 b -94 936 -68 1025 -94 988 "},"̦":{"ha":0,"x_min":0,"x_max":0,"o":"m -111 -225 b -194 -158 -154 -239 -194 -219 b -122 -82 -194 -112 -161 -82 b -42 -200 -68 -82 -42 -131 b -181 -365 -42 -260 -72 -346 l -181 -310 b -111 -225 -137 -300 -111 -276 "},"̧":{"ha":0,"x_min":0,"x_max":0,"o":"m -176 -82 l -176 -85 b -42 -168 -122 -76 -42 -96 b -186 -272 -42 -235 -114 -272 b -335 -232 -243 -272 -301 -256 l -306 -197 b -201 -218 -272 -210 -244 -218 b -125 -167 -156 -218 -125 -196 b -194 -129 -125 -140 -146 -129 b -250 -139 -210 -129 -237 -133 l -267 -112 l -187 -10 l -118 -10 "},"̨":{"ha":0,"x_min":0,"x_max":0,"o":"m -132 -246 b -258 -143 -215 -246 -258 -204 b -153 0 -258 -78 -203 -21 l -69 0 b -161 -119 -129 -47 -161 -89 b -110 -162 -161 -147 -137 -162 b -42 -149 -82 -162 -61 -157 l -42 -232 b -132 -246 -68 -240 -101 -246 "},"̵":{"ha":0,"x_min":0,"x_max":0,"o":"m -42 465 l -608 465 l -608 563 l -42 563 "},"̶":{"ha":0,"x_min":0,"x_max":0,"o":"m -42 438 l -736 438 l -736 563 l -42 563 "},"̷":{"ha":0,"x_min":0,"x_max":0,"o":"m -731 -12 l -44 675 l -93 724 l -778 36 "},"̸":{"ha":0,"x_min":0,"x_max":0,"o":"m -731 -12 l -44 675 l -93 724 l -778 36 "},"´":{"ha":676,"x_min":0,"x_max":0,"o":"m 483 1007 l 382 831 l 292 831 l 351 1007 "},"˘":{"ha":694,"x_min":0,"x_max":0,"o":"m 347 825 b 171 1007 249 825 175 883 l 254 1007 b 347 908 258 939 288 908 b 440 1007 407 908 436 939 l 524 1007 b 347 825 518 888 449 825 "},"ˇ":{"ha":694,"x_min":0,"x_max":0,"o":"m 268 1007 l 346 890 l 349 890 l 426 1007 l 538 1007 l 410 831 l 285 831 l 157 1007 "},"¸":{"ha":694,"x_min":0,"x_max":0,"o":"m 326 -82 l 326 -85 b 461 -168 381 -76 461 -96 b 317 -272 461 -235 389 -272 b 168 -232 260 -272 201 -256 l 197 -197 b 301 -218 231 -210 258 -218 b 378 -167 347 -218 378 -196 b 308 -129 378 -140 357 -129 b 253 -139 293 -129 265 -133 l 236 -112 l 315 -10 l 385 -10 "},"ˆ":{"ha":579,"x_min":0,"x_max":0,"o":"m 285 1007 l 410 1007 l 538 831 l 426 831 l 349 947 l 346 947 l 268 831 l 157 831 "},"¨":{"ha":706,"x_min":0,"x_max":0,"o":"m 179 936 b 249 1006 179 974 204 1006 b 318 936 293 1006 318 974 b 249 868 318 900 293 868 b 179 936 204 868 179 900 m 388 936 b 457 1006 388 974 413 1006 b 526 936 501 1006 526 974 b 457 868 526 900 501 868 b 388 936 413 868 388 900 "},"˙":{"ha":721,"x_min":0,"x_max":0,"o":"m 290 936 b 360 1006 290 974 315 1006 b 429 936 404 1006 429 974 b 360 868 429 900 404 868 b 290 936 315 868 290 900 "},"`":{"ha":926,"x_min":0,"x_max":0,"o":"m 385 831 l 294 831 l 193 1007 l 325 1007 "},"˝":{"ha":746,"x_min":0,"x_max":0,"o":"m 382 1007 l 281 831 l 190 831 l 250 1007 m 579 1007 l 478 831 l 388 831 l 447 1007 "},"¯":{"ha":694,"x_min":0,"x_max":0,"o":"m 526 972 l 526 875 l 168 875 l 168 972 "},"˛":{"ha":694,"x_min":0,"x_max":0,"o":"m 304 -246 b 178 -143 221 -246 178 -204 b 283 0 178 -78 233 -21 l 367 0 b 275 -119 307 -47 275 -89 b 326 -162 275 -147 299 -162 b 394 -149 354 -162 375 -157 l 394 -232 b 304 -246 368 -240 335 -246 "},"˚":{"ha":708,"x_min":0,"x_max":0,"o":"m 353 810 b 232 931 288 810 232 858 b 353 1053 232 1001 288 1053 b 475 931 419 1053 475 1001 b 353 810 475 858 419 810 m 353 865 b 418 931 386 865 418 890 b 353 997 418 971 386 997 b 289 931 319 997 289 971 b 353 865 289 890 319 865 "},"˜":{"ha":694,"x_min":0,"x_max":0,"o":"m 153 865 b 256 996 153 958 204 996 b 425 946 324 996 388 946 b 457 993 454 946 457 974 l 540 993 b 438 863 540 897 489 863 b 268 913 369 863 306 913 b 236 865 239 913 236 882 l 153 865 "}}}
